<svg xmlns="http://www.w3.org/2000/svg" viewBox="0 0 413.57 180.29"><defs><style>.cls-1{fill:#2bb673;}.cls-2{fill:#231f20;}.cls-3{fill:#006838;}</style></defs><g id="Layer_2" data-name="Layer 2"><g id="Layer_1-2" data-name="Layer 1"><path class="cls-1" d="M108.92,90.1a19.06,19.06,0,0,0-22-5.64,36.37,36.37,0,0,1,8.42,12.77,65.58,65.58,0,0,1-20.32,4.3c0,.21,0,.41,0,.61,0-.2,0-.41,0-.62-1.11.06-2.23.1-3.36.1-.91,0-1.8,0-2.7-.06h0A34.7,34.7,0,0,0,15.68,87.63a59,59,0,0,0,53.47,40.43q1.26.06,2.55.06A58.61,58.61,0,0,0,104.75,118l.17-.11a19.07,19.07,0,0,0,4-27.78Z"/><path class="cls-1" d="M12.82,90a17.35,17.35,0,1,0,18.6,26.88A62.57,62.57,0,0,1,12.82,90Z"/><path class="cls-2" d="M104.92,117.88l-.17.11.17-.11Z"/><path class="cls-1" d="M61.42,77.46A32.85,32.85,0,0,0,50.55,79.3,38.32,38.32,0,0,1,71.26,98.14h.44a62.21,62.21,0,0,0,19-2.94A33,33,0,0,0,61.42,77.46Z"/><path class="cls-1" d="M95.52,65.25a141.1,141.1,0,0,1,28.29,4.86c.65-1,1.28-2,1.87-3a72.83,72.83,0,0,0-19.49-2.64A73.63,73.63,0,0,0,95.52,65.25Z"/><path class="cls-1" d="M85.58,68.37a138.38,138.38,0,0,0-47.79,8.47,37.37,37.37,0,0,1,7.53.9A36.42,36.42,0,0,1,84.14,82a22.54,22.54,0,0,1,23.92,38c-.33.25-.67.5-1,.74l-.06,0c-.36.25-.72.48-1.09.71h0c-.34.21-.69.41-1,.59v.08l-.15.09c-.35.21-.69.43-1,.63l-.28.17a62.51,62.51,0,0,1-9.87,4.7h0A62.54,62.54,0,0,1,34.14,119a20.8,20.8,0,0,1-16.79,8.52c-.39,0-.78,0-1.16,0v37.92a111.17,111.17,0,0,0,111,0V74.73A138.7,138.7,0,0,0,85.58,68.37Z"/><path class="cls-1" d="M79.9,14.24l1-10.62h0A3.46,3.46,0,0,0,74,3h0L73,13.65H71.7A55.21,55.21,0,0,0,47,19.42l-5.31-9.24-.06,0a3.46,3.46,0,0,0-6.39,1.86,3.42,3.42,0,0,0,.83,2.25L41,22.89A55.45,55.45,0,0,0,16.19,69.15c0,1,0,1.93.08,2.89a76.44,76.44,0,0,1,12.37,4.72A141.56,141.56,0,0,1,81.88,65,76.68,76.68,0,0,1,127,63.86,55.52,55.52,0,0,0,79.9,14.24ZM50.75,61.34a6.94,6.94,0,1,1,6.94-6.94A6.94,6.94,0,0,1,50.75,61.34ZM84.1,54.4A6.94,6.94,0,1,1,91,47.46,6.94,6.94,0,0,1,84.1,54.4Z"/><path class="cls-1" d="M69.15,128.06q1.26.06,2.55.06A58.61,58.61,0,0,0,104.75,118l.17-.11A19.08,19.08,0,0,0,87,84.46a36.37,36.37,0,0,1,8.42,12.77,65.58,65.58,0,0,1-20.32,4.3c0,.21,0,.41,0,.61,0-.2,0-.41,0-.62-1.11.06-2.23.1-3.36.1-.91,0-1.8,0-2.7-.06h0A34.7,34.7,0,0,0,15.68,87.63,59,59,0,0,0,69.15,128.06Z"/><path class="cls-1" d="M31.42,116.87A62.57,62.57,0,0,1,12.82,90a17.35,17.35,0,1,0,18.6,26.88Z"/><path class="cls-1" d="M71.26,98.14h.44a62.21,62.21,0,0,0,19-2.94A33,33,0,0,0,50.55,79.3,38.32,38.32,0,0,1,71.26,98.14Z"/><path class="cls-1" d="M95.52,65.25a141.1,141.1,0,0,1,28.29,4.86c.65-1,1.28-2,1.87-3a72.83,72.83,0,0,0-19.49-2.64A73.63,73.63,0,0,0,95.52,65.25Z"/><path class="cls-1" d="M85.58,68.37a138.38,138.38,0,0,0-47.79,8.47,37.37,37.37,0,0,1,7.53.9A36.42,36.42,0,0,1,84.14,82a22.54,22.54,0,0,1,23.92,38c-.33.25-.67.5-1,.74l-.06,0c-.36.25-.72.48-1.09.71h0c-.34.21-.69.41-1,.59v.08l-.15.09c-.35.21-.69.43-1,.63l-.28.17a62.51,62.51,0,0,1-9.87,4.7h0A62.54,62.54,0,0,1,34.14,119a20.8,20.8,0,0,1-16.79,8.52c-.39,0-.78,0-1.16,0v37.92a111.17,111.17,0,0,0,111,0V74.73A138.7,138.7,0,0,0,85.58,68.37Z"/><path class="cls-1" d="M28.64,76.76A141.56,141.56,0,0,1,81.88,65,76.68,76.68,0,0,1,127,63.86a55.52,55.52,0,0,0-47-49.62l1-10.62h0A3.46,3.46,0,0,0,74,3h0L73,13.65H71.7A55.21,55.21,0,0,0,47,19.42l-5.31-9.24-.06,0a3.46,3.46,0,0,0-6.39,1.86,3.42,3.42,0,0,0,.83,2.25L41,22.89A55.45,55.45,0,0,0,16.19,69.15c0,1,0,1.93.08,2.89A76.44,76.44,0,0,1,28.64,76.76ZM84.1,40.52a6.94,6.94,0,1,1-6.93,6.94A6.94,6.94,0,0,1,84.1,40.52ZM50.75,47.46a6.94,6.94,0,1,1-6.94,6.94A6.94,6.94,0,0,1,50.75,47.46Z"/><path class="cls-3" d="M160.54,76.06h9.1l15.91,42.33h-8.81l-3.49-10.11H156.93l-3.49,10.11h-8.8ZM170.65,101l-3.79-10.58-1.53-5.15h-.47l-1.54,5.15L159.53,101Z"/><path class="cls-3" d="M190.51,76.06h9.29l17,28.38h.47l-.47-8.16V76.06h7.92v42.33h-8.39l-18-30h-.48l.48,8.15v21.82h-7.87Z"/><path class="cls-3" d="M233.26,76.06h14.3a25.08,25.08,0,0,1,9.05,1.54,19.46,19.46,0,0,1,6.86,4.34,18.82,18.82,0,0,1,4.34,6.71,25.27,25.27,0,0,1,0,17.21,18.61,18.61,0,0,1-4.34,6.68,19.68,19.68,0,0,1-6.86,4.31,25.08,25.08,0,0,1-9.05,1.54h-14.3Zm14,34.76a17.88,17.88,0,0,0,6.15-1,12,12,0,0,0,4.43-2.75,11.24,11.24,0,0,0,2.66-4.29,18,18,0,0,0,0-11.17,11.24,11.24,0,0,0-2.66-4.29,12,12,0,0,0-4.43-2.75,17.88,17.88,0,0,0-6.15-1h-6v27.19Z"/><path class="cls-3" d="M275.76,76.06H291.2a16,16,0,0,1,5.79,1,13.59,13.59,0,0,1,4.46,2.78,12.25,12.25,0,0,1,2.87,4.23,14,14,0,0,1,1,5.35,11.17,11.17,0,0,1-.71,4,12.27,12.27,0,0,1-1.95,3.37,14.43,14.43,0,0,1-2.9,2.66,15.06,15.06,0,0,1-3.49,1.81l-.06.41,11.35,16.26v.47h-9.16l-10.94-15.9h-3.72v15.9h-8Zm15.38,19.1a6.23,6.23,0,0,0,4.46-1.66,5.54,5.54,0,0,0,1.74-4.2,6.22,6.22,0,0,0-.38-2.18,5.69,5.69,0,0,0-1.15-1.9,5.93,5.93,0,0,0-1.92-1.33,6.65,6.65,0,0,0-2.64-.5h-7.5V95.16Z"/><path class="cls-3" d="M332.46,119.34a22.36,22.36,0,0,1-8.78-1.72A21.41,21.41,0,0,1,312,105.89a23.06,23.06,0,0,1,0-17.33,21.41,21.41,0,0,1,11.64-11.73,23.27,23.27,0,0,1,17.56,0,21.55,21.55,0,0,1,7,4.7,21.86,21.86,0,0,1,4.64,7,23.19,23.19,0,0,1,0,17.33,21.86,21.86,0,0,1-4.64,7,21.55,21.55,0,0,1-7,4.7A22.36,22.36,0,0,1,332.46,119.34Zm0-7.57A14.3,14.3,0,0,0,338,110.7a14,14,0,0,0,4.49-3,13.5,13.5,0,0,0,3-4.58,16.76,16.76,0,0,0,0-11.89,13.5,13.5,0,0,0-3-4.58,13.79,13.79,0,0,0-4.49-3,14.83,14.83,0,0,0-11.06,0,13.79,13.79,0,0,0-4.49,3,13.33,13.33,0,0,0-3,4.58,16.62,16.62,0,0,0,0,11.89,13.33,13.33,0,0,0,3,4.58,14,14,0,0,0,4.49,3A14.34,14.34,0,0,0,332.46,111.77Z"/><path class="cls-3" d="M361,76.06h8v42.33h-8Z"/><path class="cls-3" d="M377.51,76.06h14.31a25,25,0,0,1,9,1.54,19.46,19.46,0,0,1,6.86,4.34,19,19,0,0,1,4.35,6.71,25.43,25.43,0,0,1,0,17.21,18.77,18.77,0,0,1-4.35,6.68,19.68,19.68,0,0,1-6.86,4.31,25,25,0,0,1-9,1.54H377.51Zm13.95,34.76a17.8,17.8,0,0,0,6.15-1,12.07,12.07,0,0,0,4.44-2.75,11.24,11.24,0,0,0,2.66-4.29,18.16,18.16,0,0,0,0-11.17,11.24,11.24,0,0,0-2.66-4.29,12.07,12.07,0,0,0-4.44-2.75,17.8,17.8,0,0,0-6.15-1h-6v27.19Z"/><path class="cls-3" d="M158.13,127.48a15.41,15.41,0,0,1,12.15,5.75,20,20,0,0,1,4.94,13.46q0,8.72-4.38,13.49t-12.16,5q-16.65.6-17.21-11.44a7.74,7.74,0,0,1,2.78-6.32,10.33,10.33,0,0,1,7.21-2.67h2.45C153.8,143,153,142,151.46,142s-2.51.66-2.77,2h-5.55q.27-7.1,8.55-7.1a7.5,7.5,0,0,1,6.13,2.83,11.66,11.66,0,0,1,2.3,7.6,22.91,22.91,0,0,1-.11,2.34h-6.1a8.37,8.37,0,0,0-4.5,1.05,3.53,3.53,0,0,0-1.83,3.28c0,2,1.29,3.47,3.77,4.44a17.48,17.48,0,0,0,7.33,1,10.75,10.75,0,0,0,7.74-3.72,12.88,12.88,0,0,0,3-8.83,15.49,15.49,0,0,0-3.28-10,10.87,10.87,0,0,0-8.93-4.33,13.64,13.64,0,0,0-5.44,1,7.12,7.12,0,0,0-3.44,2.72h-6.11Q145.48,127.48,158.13,127.48Z"/><path class="cls-3" d="M176.89,138.14H194.2v4.22a45.27,45.27,0,0,0-7,5.27q-3.39,3.39-3.61,6.83a9.1,9.1,0,0,0,.33,3.39,2.74,2.74,0,0,0,2.89,2.05,2.68,2.68,0,0,0,2.22-1.06,3.4,3.4,0,0,0,.72-2.22,3.44,3.44,0,0,0-.28-1.38h5.66a13.1,13.1,0,0,1,.22,2.38,7.09,7.09,0,0,1-2.3,5.67,8.19,8.19,0,0,1-5.69,1.94c-3.25,0-5.7-.72-7.32-2.06q-3.06-2.49-2.78-8.38a12.83,12.83,0,0,1,3.16-7.77,12.23,12.23,0,0,1,5.39-4.11h-8.88Z"/><path class="cls-3" d="M198.26,155.24c0-2.7.88-4.59,2.66-5.66h-4.38v-4.72H211.3a2.6,2.6,0,0,0-.61-2,2.31,2.31,0,0,0-1.89-.88c-1.59,0-2.46.64-2.61,1.94h-5.93a6.42,6.42,0,0,1,2.41-5.14,9.81,9.81,0,0,1,6.35-1.91,7.26,7.26,0,0,1,5.89,2.89,12.41,12.41,0,0,1,2.5,8.1c0,.56,0,1.11-.06,1.67h-6.72a5.9,5.9,0,0,0-4.6,1.88,4.87,4.87,0,0,0-1.33,2.89q-.45,5.22,4.32,5.22a3.31,3.31,0,0,0,2.84-1.39,4.73,4.73,0,0,0,.88-2.94v-3h5.67v2.66a5.43,5.43,0,0,0,.88,3.17,3.71,3.71,0,0,0,3.17,1.5c1.7,0,3-1.34,3.94-4a24.48,24.48,0,0,0,1-7.66,18.07,18.07,0,0,0-3.11-10.66,10.44,10.44,0,0,0-9-4.88q-6.71,0-9.16,3.77H200a11.75,11.75,0,0,1,5.78-6.77,19,19,0,0,1,9.54-2.33,16.38,16.38,0,0,1,13.21,6q5,5.83,4.89,14.71-.06,7.32-2.11,11.82-2.55,5.61-7.88,5.61c-4.19,0-6.81-1.07-7.89-3.22q-1.77,3.27-7,3.22-5.06-.06-7.77-2.94A9.78,9.78,0,0,1,198.26,155.24Z"/><path class="cls-3" d="M236.56,143.34a6.2,6.2,0,0,1,1.8-4.5,6.45,6.45,0,0,1,4.36-2,7.66,7.66,0,0,1,4.05.8,4.25,4.25,0,0,1,2.22,2.7,15.24,15.24,0,0,1,5.66-2.89,26,26,0,0,1,6.27-.61A14.71,14.71,0,0,1,271.41,141a13.88,13.88,0,0,1,4.5,10.23q.1,6.18-2.94,10a10.83,10.83,0,0,1-8.88,4.07V160.1a5.8,5.8,0,0,0,4.41-2.62,10.28,10.28,0,0,0-1.14-12.61,9.8,9.8,0,0,0-6.44-3,16.75,16.75,0,0,0-5.77.55,10.48,10.48,0,0,1,6.61,3.77,13,13,0,0,1,2.83,7.66,12.44,12.44,0,0,1-1.86,8.14,7.22,7.22,0,0,1-6.14,3.19q-4.54.11-6.32-2.44-1.89,2.55-6.22,2.44-5.38-.12-6.66-4.44a4,4,0,0,1-.22-1.28,3.84,3.84,0,0,1,.47-1.8,4.08,4.08,0,0,0,.47-1.14c0-.52-.3-.78-.89-.78A1.89,1.89,0,0,0,235.5,157v-4.27c1.33-1.59,2.78-3.2,4.33-4.83l4.55-4.55a1,1,0,0,0,.28-.67q0-1.22-1.5-1.05c-1,.11-1.55.89-1.55,2.33a2.78,2.78,0,0,0,.11.83h-5A6.6,6.6,0,0,1,236.56,143.34Zm6.82,11.95a4.09,4.09,0,0,1-.22,1.17,4.09,4.09,0,0,0-.22,1.16c0,1.41.78,2.13,2.33,2.17a2.22,2.22,0,0,0,2-1.08,4.66,4.66,0,0,0,.78-2.7v-1.88h4.88v1.94q0,3.78,3.11,3.61c1,0,1.79-.72,2.27-2.06a10.57,10.57,0,0,0,.39-4.05,7.5,7.5,0,0,0-2.69-5.24,6.82,6.82,0,0,0-5.52-1.7c-1.45.19-3.1,1.15-5,2.89s-3.12,3-3.75,3.66A2.1,2.1,0,0,1,243.38,155.29Z"/><path class="cls-3" d="M276.85,143.58v-5.33a13.26,13.26,0,0,1,6.11-1.33,8.25,8.25,0,0,1,7.49,4.38,18,18,0,0,1,2.17,9.39,20.19,20.19,0,0,1-2.28,9.71q-2.61,4.6-7.27,4.72a14.78,14.78,0,0,1-6.33-1.34v-5.66a7.63,7.63,0,0,0,4.22,1.56,4,4,0,0,0,1.33-.22c2.67-1,4-3.59,4.11-7.89q.11-9.44-5.16-9.43A7.69,7.69,0,0,0,276.85,143.58Z"/><path class="cls-3" d="M305.05,137.09c1.3-.67,2.31-1.24,3.05-1.72a23.12,23.12,0,0,0,3.94-3.11,16,16,0,0,0,2.89-4.44h6.66a14.9,14.9,0,0,1-2.27,4.77A12.14,12.14,0,0,1,314,137c.3,0,1,.19,2.17.44a13.27,13.27,0,0,1,7.82,5.28,14.06,14.06,0,0,1,2.61,8.38,15.13,15.13,0,0,1-1.55,6.72,13.08,13.08,0,0,1-6,5.93,19.86,19.86,0,0,1-15.68.53,12.21,12.21,0,0,1-5.25-3.8,15.14,15.14,0,0,1-3.38-9.33,15.7,15.7,0,0,1,.77-4.82Q297.51,139.91,305.05,137.09Zm-1.94,8a9.35,9.35,0,0,0-2.06,5.94A7.83,7.83,0,0,0,304,157.4a10.21,10.21,0,0,0,6.82,2.11c3.44,0,6-1.13,7.66-3.39a8.34,8.34,0,0,0,1.78-5.21,8.88,8.88,0,0,0-2.89-6.55,9.13,9.13,0,0,0-6.66-2.39C307.31,142,304.77,143,303.11,145.13Z"/><path class="cls-3" d="M355.4,143.52h-5.83a8.75,8.75,0,0,0-3.11-1.55,20,20,0,0,0-4-.28,7.18,7.18,0,0,0-5.71,2.78,9.29,9.29,0,0,0-2.28,6.33,9.42,9.42,0,0,0,2.41,6.38,7.9,7.9,0,0,0,6.14,2.61,8.43,8.43,0,0,0,5.38-1.67,6.83,6.83,0,0,0,2.39-4.16,8,8,0,0,1-7.33,3.11,6.4,6.4,0,0,1-4-1.78,5.42,5.42,0,0,1-1.84-4.22,6.46,6.46,0,0,1,2.67-5.55,8,8,0,0,1,4.77-1.5c3.63,0,6.43,1,8.41,2.92a9.54,9.54,0,0,1,2.64,7.85,9.9,9.9,0,0,1-4,7.72,15.27,15.27,0,0,1-9.29,2.72q-6.56,0-10.41-4a13.74,13.74,0,0,1-3.69-10.27q.17-6.43,4-10.24a13.7,13.7,0,0,1,10-3.86Q352.79,136.75,355.4,143.52Zm-12.49,7.28c0,1.51,1,2.27,2.88,2.27,1.56,0,2.56-.52,3-1.55a2.45,2.45,0,0,0,.22-1,1.9,1.9,0,0,0-.94-1.67,3.78,3.78,0,0,0-2.05-.61C343.94,148.24,342.91,149.09,342.91,150.8Z"/><path class="cls-3" d="M374.05,136.92v4.91a8.61,8.61,0,0,0-6.8,2.34,10,10,0,0,0-3,6.64,10.62,10.62,0,0,0,.94,6,4.29,4.29,0,0,0,4,2.68c2.92,0,4.39-1.32,4.39-3.83v-2.39h5.27v2.33a3.78,3.78,0,0,0,1.33,3,5,5,0,0,0,3.44,1.08,3.8,3.8,0,0,0,3.11-1.45,5.46,5.46,0,0,0,1-3.55c-.07-3.25-2.37-4.88-6.88-4.88h-6.61a28,28,0,0,1-.16-2.94q0-9.66,8.77-10.05,7.94-.33,8.66,7.33h-5.67c0-1.56-.88-2.34-2.66-2.34a2.92,2.92,0,0,0-2.08.81,2.71,2.71,0,0,0-.81,2.19h2.78a10.74,10.74,0,0,1,7.49,2.72A9.63,9.63,0,0,1,393.7,155a11.19,11.19,0,0,1-2.61,7.44,8.05,8.05,0,0,1-5.83,2.78q-7,.17-9-3c-1.34,2.07-3.85,3.07-7.55,3s-6.21-1.4-8-4-2.54-6.09-2.36-10.59a14.34,14.34,0,0,1,4.22-9.8,13,13,0,0,1,9.6-4.07A15.82,15.82,0,0,1,374.05,136.92Z"/><path class="cls-3" d="M394.64,143.58v-5.33a13.21,13.21,0,0,1,6.1-1.33,8.26,8.26,0,0,1,7.5,4.38,17.89,17.89,0,0,1,2.16,9.39,20.08,20.08,0,0,1-2.27,9.71c-1.74,3.07-4.17,4.64-7.27,4.72a14.78,14.78,0,0,1-6.33-1.34v-5.66a7.58,7.58,0,0,0,4.22,1.56,4.08,4.08,0,0,0,1.33-.22c2.66-1,4-3.59,4.11-7.89q.1-9.44-5.17-9.43A7.66,7.66,0,0,0,394.64,143.58Z"/><rect class="cls-3" x="397.75" y="127.82" width="5" height="12.18"/></g></g></svg>