<svg width="75" height="75" viewBox="0 0 75 75" fill="none" xmlns="http://www.w3.org/2000/svg">
<g clip-path="url(#clip0_1239_172)">
<path d="M18.9807 74.9363L20.3615 74.5504C21.6896 74.1792 22.4653 72.8016 22.0942 71.4735L6.30763 14.9793C6.08487 14.182 5.5545 13.5059 4.83322 13.0997C4.11193 12.6935 3.25882 12.5904 2.46155 12.8132L2.28323 12.863C0.622924 13.3269 -0.346974 15.0489 0.116898 16.7092L15.9039 73.2034C16.275 74.5315 17.6525 75.3074 18.9807 74.9363Z" fill="white"/>
<path d="M74.5741 35.4569C69.5678 32.9607 64.9365 29.7744 60.8155 25.9914C60.4691 25.6743 60.3336 25.1875 60.4663 24.7371C62.5082 17.0123 64.0246 9.15814 65.0051 1.22845C65.1603 -0.0905118 64.4491 -0.478443 63.6991 0.42673C48.9836 18.0259 23.5224 -2.7931 8.36719 13.2026C8.54914 13.5433 8.69228 13.9033 8.79391 14.2759L19.0353 50.9483C34.2163 35.1466 59.587 55.8362 74.2767 38.2759C75.0267 37.3707 75.1689 35.7155 74.5741 35.4569Z" fill="white"/>
</g>
<defs>
<clipPath id="clip0_1239_172">
<rect width="75" height="75" fill="white"/>
</clipPath>
</defs>
</svg>
