<svg width="275" height="75" viewBox="0 0 275 75" fill="none" xmlns="http://www.w3.org/2000/svg">
<path d="M131.749 61.2762C128.791 59.6738 126.374 57.2444 124.729 54.2981C123.032 51.2742 122.157 47.7076 122.157 43.5983C122.157 39.4889 123.006 35.9223 124.729 32.8726C126.349 29.9005 128.791 27.471 131.749 25.8687C134.706 24.2404 138.074 23.4392 141.828 23.4392C145.583 23.4392 148.951 24.2404 151.908 25.8687C154.865 27.471 157.282 29.9263 158.877 32.8726C160.574 35.9223 161.396 39.5148 161.396 43.5983C161.396 47.6818 160.548 51.2742 158.877 54.2981C157.257 57.2444 154.839 59.6738 151.908 61.2762C148.951 62.9045 145.583 63.7056 141.828 63.7056C138.074 63.7056 134.706 62.9045 131.749 61.2762ZM135.374 30.7017C133.394 31.7613 131.8 33.3637 130.591 35.5347C129.383 37.7056 128.766 40.3935 128.766 43.5983C128.766 46.7514 129.383 49.4134 130.591 51.5844C131.8 53.7553 133.394 55.3577 135.374 56.4174C139.411 58.5108 144.22 58.5108 148.257 56.4174C150.237 55.3577 151.805 53.7553 153.04 51.5844C154.274 49.4134 154.865 46.7514 154.865 43.5983C154.865 40.3935 154.248 37.7056 153.04 35.5347C151.831 33.3637 150.237 31.7613 148.257 30.7017C144.22 28.6082 139.411 28.6082 135.374 30.7017ZM255.072 63.2146L244.889 48.1728L235.709 63.2146H228.509L241.341 42.9522L228.458 23.9044H235.864L245.763 38.5068L254.815 23.9044H262.014L249.26 43.65L262.503 63.1887L255.072 63.2146ZM215.678 63.2146V23.9044H222.158V63.2146H215.678ZM199.221 63.2146V40.9363C199.221 37.0337 198.219 34.0098 196.239 31.9164C194.233 29.8229 191.533 28.7633 188.113 28.7633C184.565 28.7633 181.71 29.9263 179.576 32.2265C177.442 34.5267 176.362 37.9124 176.362 42.3577V63.1887H169.882V23.9044H176.362V33.2086C177.365 30.0039 179.139 27.5486 181.659 25.8428C184.205 24.1371 187.136 23.2583 190.453 23.2583C195.004 23.2583 198.681 24.7315 201.484 27.652C204.287 30.5724 205.676 34.811 205.676 40.3677V63.2146H199.221ZM101.303 63.2146V29.642H95.6721V23.9044H101.303V22.3279C101.303 12.9204 106.549 8.44918 117.04 8.86269V14.6003C113.569 14.5486 111.152 15.143 109.815 16.3836C108.452 17.6241 107.783 19.7693 107.783 22.819V23.9044H117.04V29.642H107.783V63.2146H101.303ZM82.841 63.2146V12.7394H89.3208V63.2146H82.841ZM273.637 21.9144V18.8647L272.506 21.9144H271.503L270.371 18.8647V21.9144H269.137V16.8229H270.603L272.017 20.3378L273.431 16.8229H274.871V21.9144H273.637ZM265.949 21.9144V17.8309H264.612V16.8488H268.52V17.8309H267.183V21.9144H265.949ZM215.755 15.2722C214.958 14.5227 214.495 13.4631 214.547 12.3776C214.495 11.2921 214.958 10.2066 215.755 9.48298C216.553 8.73347 217.633 8.37164 218.97 8.37164C220.307 8.37164 221.361 8.73347 222.184 9.48298C222.981 10.2325 223.444 11.2921 223.392 12.3776C223.444 13.4631 222.981 14.5486 222.184 15.2722C221.387 16.0217 220.307 16.3836 218.97 16.3836C217.633 16.3836 216.553 16.0217 215.755 15.2722Z" fill="white"/>
<path d="M26.5793 34.1907L15.3166 74.9999L0.942627 0.618164L26.5793 34.1907Z" fill="#543FD6"/>
<path d="M26.3221 34.3716L68.3127 31.0635L3.694 70.0893L26.3221 34.3716Z" fill="#FECF00"/>
<path d="M33.1105 24.2146L45.0674 23.1549L26.5535 34.32L33.1105 24.2146Z" fill="#32A9FF"/>
<path d="M11.871 57.1669L26.3221 34.3716L26.5278 34.3458L19.2765 60.6559L13.2595 64.3001L11.871 57.1669Z" fill="#FF3D00"/>
</svg>
