<svg width="197" height="26" viewBox="0 0 197 26" fill="none" xmlns="http://www.w3.org/2000/svg">
<path d="M0 3.69037V0.759302H14.4951V3.69037H8.73237V19.0887H5.71174V3.69037H0Z" fill="white"/>
<path d="M51.5076 0.759302V8.45847H59.9105V0.759302H62.9311V19.0887H59.9105V11.3895H51.5076V19.0887H48.487V0.759302H51.5076Z" fill="white"/>
<path d="M67.7877 0.759302L78.1049 12.3081V0.759302H81.1255V19.0887H80.1173L69.7766 7.51546V19.0887H66.7559V0.759302H67.7877Z" fill="white"/>
<path d="M107.17 14.7411C107.707 15.5086 108.394 16.0352 109.233 16.325C110.073 16.6149 110.928 16.7577 111.799 16.7577C112.132 16.7577 112.493 16.721 112.881 16.6516C113.266 16.5822 113.627 16.4597 113.964 16.2842C114.298 16.1087 114.576 15.88 114.796 15.5902C115.011 15.3004 115.121 14.9411 115.121 14.5043C115.121 14.0675 114.984 13.6838 114.705 13.3531C114.427 13.0225 114.058 12.7163 113.599 12.4387C113.136 12.1611 112.615 11.8998 112.026 11.6549C111.438 11.41 110.838 11.1487 110.226 10.8711C109.614 10.5935 109.013 10.2914 108.425 9.96891C107.836 9.64641 107.315 9.27084 106.852 8.8422C106.389 8.41356 106.02 7.91553 105.746 7.34809C105.467 6.78066 105.33 6.12341 105.33 5.37227C105.33 4.48234 105.498 3.70262 105.832 3.02905C106.165 2.35547 106.613 1.80028 107.166 1.35123C107.719 0.906264 108.362 0.571518 109.092 0.34291C109.821 0.114303 110.579 0.00408173 111.367 0.00408173C112.524 0.00408173 113.638 0.244936 114.713 0.722562C115.788 1.20427 116.734 1.86152 117.557 2.69838L115.569 5.00078C114.98 4.38844 114.321 3.91898 113.591 3.58832C112.862 3.25765 112.085 3.09028 111.265 3.09028C110.881 3.09028 110.512 3.1311 110.159 3.20867C109.806 3.28623 109.492 3.41686 109.213 3.60056C108.935 3.78427 108.715 4.0292 108.547 4.33537C108.378 4.64154 108.295 5.0212 108.295 5.47433C108.295 5.99686 108.539 6.43774 109.025 6.79698C109.512 7.15622 110.116 7.49505 110.838 7.81755C111.559 8.14005 112.344 8.4748 113.191 8.82588C114.039 9.17695 114.823 9.59742 115.545 10.0955C116.267 10.5935 116.871 11.2058 117.357 11.9284C117.844 12.655 118.087 13.5491 118.087 14.6145C118.087 15.5045 117.895 16.276 117.506 16.9333C117.122 17.5864 116.628 18.1335 116.024 18.5703C115.419 19.0071 114.737 19.3296 113.972 19.5378C113.207 19.746 112.45 19.8521 111.693 19.8521C111.038 19.8521 110.39 19.7909 109.743 19.6684C109.096 19.5459 108.476 19.3541 107.88 19.0928C107.283 18.8315 106.726 18.5009 106.208 18.0967C105.687 17.6967 105.228 17.2149 104.824 16.6557L107.166 14.7452L107.17 14.7411Z" fill="white"/>
<path d="M132.81 4.51908C132.559 3.81284 132.186 3.18009 131.692 2.62082C131.197 2.06155 130.578 1.6125 129.828 1.27367C129.083 0.93484 128.212 0.763385 127.223 0.763385H121.41V3.69446H127.223C127.859 3.69446 128.389 3.8455 128.808 4.14351C129.228 4.44151 129.546 4.813 129.765 5.25389C129.985 5.69477 130.091 6.1724 130.091 6.69493C130.091 7.21746 129.985 7.69508 129.777 8.13597C129.565 8.57686 129.248 8.94426 128.82 9.24635C128.392 9.54844 127.859 9.6954 127.223 9.6954H121.41V19.0969H124.43V12.6306H127.223C128.212 12.6306 129.083 12.4591 129.828 12.1203C130.574 11.7814 131.193 11.3365 131.692 10.7854C132.186 10.2343 132.559 9.60151 132.81 8.88711C133.061 8.17271 133.186 7.44607 133.186 6.71534C133.186 5.98461 133.061 5.23756 132.81 4.52724V4.51908Z" fill="white"/>
<path d="M20.607 16.1617H17.3117V19.0887H28.7117V16.1576H20.607V16.1617Z" fill="white"/>
<path d="M20.3324 8.45439H17.3117V11.3977H20.3324V11.3895H26.8993V8.45847H20.3324V8.45439Z" fill="white"/>
<path d="M17.3117 0.759302V3.69037H28.7117V0.759302H17.3117Z" fill="white"/>
<path d="M158.073 16.1617H154.778V19.0887H166.178V16.1576H158.073V16.1617Z" fill="white"/>
<path d="M157.798 8.45439H154.778V11.3977H157.798V11.3895H164.365V8.45847H157.798V8.45439Z" fill="white"/>
<path d="M154.778 0.759302V3.69037H166.178V0.759302H154.778Z" fill="white"/>
<path d="M188.899 16.1617H185.604V19.0887H197V16.1576H188.899V16.1617Z" fill="white"/>
<path d="M188.621 8.45439H185.604V11.3977H188.621V11.3895H195.192V8.45847H188.621V8.45439Z" fill="white"/>
<path d="M185.604 0.759302V3.69037H197V0.759302H185.604Z" fill="white"/>
<path d="M180.563 15.7127L185.741 23.5466L182.109 23.5588L177.287 16.2025" fill="white"/>
<path d="M182.16 18.1539L187.338 25.9878L183.705 26L178.884 18.6437" fill="white"/>
<path d="M175.059 0.75522C176.216 0.75522 177.205 0.963416 178.029 1.38389C178.849 1.80436 179.5 2.34731 179.979 3.02088C180.457 3.69446 180.771 4.43335 180.924 5.24572C181.077 6.05809 181.053 6.85414 180.861 7.62977C180.669 8.4054 180.308 9.12796 179.778 9.78929C179.249 10.4547 178.551 10.9609 177.676 11.3079L182.783 19.0887H179.182L174.424 11.7814H172.509V19.0887H169.489V6.20914L172.458 3.69037L169.489 4.10677V0.75522H175.059ZM172.517 3.69037V8.85037H175.059C175.695 8.85037 176.228 8.72382 176.656 8.46663C177.083 8.20945 177.401 7.89512 177.613 7.51546C177.821 7.13581 177.927 6.7235 177.927 6.27037C177.927 5.81724 177.817 5.40493 177.601 5.02528C177.382 4.64563 177.064 4.32721 176.644 4.07411C176.224 3.81693 175.695 3.69037 175.059 3.69037H172.517Z" fill="white"/>
<path d="M93.616 0.338828C94.7379 0.338828 95.8442 0.53886 96.9308 0.938922C98.0175 1.33899 98.9864 1.935 99.8338 2.73104C100.681 3.523 101.364 4.52316 101.882 5.72335C102.399 6.92762 102.662 8.31967 102.662 9.90768C102.662 11.4957 102.403 12.9081 101.882 14.1043C101.364 15.2963 100.681 16.2924 99.8338 17.0843C98.9864 17.8763 98.0214 18.4764 96.9308 18.8764C95.8403 19.2765 94.7379 19.4765 93.616 19.4765C92.494 19.4765 91.3643 19.2765 90.2737 18.8764C89.1831 18.4764 88.2181 17.8804 87.3707 17.0843C86.5234 16.2924 85.8408 15.2963 85.323 14.1043C84.8052 12.9122 84.5423 11.512 84.5423 9.90768C84.5423 8.54828 84.7346 7.31952 85.119 6.22138H88.4848C88.1671 6.71126 87.92 7.25828 87.7434 7.86654C87.5669 8.47888 87.4806 9.15654 87.4806 9.90768C87.4806 10.9895 87.6571 11.9243 88.0063 12.7163C88.3593 13.5082 88.8222 14.1777 89.3989 14.7166C89.9755 15.2555 90.6307 15.6596 91.3603 15.9209C92.09 16.1821 92.8393 16.3128 93.6081 16.3128C94.377 16.3128 95.1067 16.1821 95.8442 15.9209C96.5817 15.6596 97.2329 15.2595 97.8057 14.7166C98.3745 14.1777 98.8374 13.5082 99.1865 12.7163C99.5396 11.9243 99.7122 10.9854 99.7122 9.90768C99.7122 8.82996 99.5356 7.91145 99.1865 7.11132C98.8335 6.31119 98.3745 5.63762 97.8057 5.09876C97.2368 4.5599 96.5817 4.15575 95.8442 3.89449C95.1067 3.63322 94.3613 3.50259 93.6081 3.50259C92.6706 3.50259 91.7644 3.69854 90.8935 4.09044C90.0226 4.48234 89.293 5.07018 88.7085 5.85398L86.6215 3.55158C87.4924 2.46977 88.5437 1.66557 89.7755 1.13487C91.0073 0.604176 92.2822 0.338828 93.6081 0.338828H93.616Z" fill="white"/>
<path d="M44.9172 17.6232C44.1954 18.2355 43.4265 18.6968 42.6144 19.0111C41.7985 19.3255 40.8138 19.4806 39.6566 19.4806C38.3816 19.4806 37.2401 19.2847 36.2358 18.8928C35.2276 18.5009 34.3567 17.9661 33.6192 17.2966C32.8817 16.623 32.2776 15.8474 31.8068 14.9656C31.3361 14.0838 31.0026 13.149 30.7987 12.1652C30.5986 11.1773 30.5319 10.1812 30.5986 9.16879C30.6653 8.15638 30.8653 7.17664 31.2027 6.23771H34.7255C34.341 6.86638 34.0664 7.55221 33.9056 8.29518C33.7448 9.03815 33.6938 9.78521 33.7565 10.5323C33.8154 11.2834 33.9841 12.01 34.2587 12.7204C34.5333 13.4307 34.9216 14.0512 35.4159 14.5941C35.9102 15.1371 36.5143 15.5698 37.2283 15.8923C37.9423 16.2148 38.7582 16.3781 39.6801 16.3781C40.1508 16.3781 40.5706 16.3373 40.9393 16.2597C41.3081 16.1821 41.6337 16.076 41.9201 15.9454C42.2064 15.8147 42.4497 15.68 42.6497 15.5371C42.8498 15.3983 43.0185 15.2595 43.1519 15.1167L44.9132 17.6313L44.9172 17.6232ZM32.662 3.55974C33.4152 2.60041 34.3763 1.82886 35.5414 1.24101C36.7065 0.657246 38.0796 0.363322 39.6566 0.363322C40.5941 0.363322 41.5199 0.526613 42.4261 0.849112C43.3323 1.17161 44.164 1.62883 44.9172 2.22484L43.1558 4.79259C42.787 4.44151 42.3045 4.13942 41.7082 3.87408C41.112 3.61281 40.4372 3.48218 39.684 3.48218C38.5582 3.48218 37.597 3.71487 36.7889 4.17617C35.9847 4.63746 35.3374 5.24572 34.851 5.99686L32.662 3.55974Z" fill="white"/>
<path d="M136.509 0.759302H139.53V8.45847H147.932V0.759302H150.953V19.0887H147.932V11.3895H139.53V19.0887H136.509V13.9573L139.53 11.3895H136.509V0.759302Z" fill="white"/>
</svg>
