<svg width="30" height="30" viewBox="0 0 30 30" fill="none" xmlns="http://www.w3.org/2000/svg">
<circle cx="15" cy="15" r="14" stroke="#8566FF" stroke-width="2"/>
<path d="M10.2929 18.2929C9.90237 18.6834 9.90237 19.3166 10.2929 19.7071C10.6834 20.0976 11.3166 20.0976 11.7071 19.7071L10.2929 18.2929ZM20 11C20 10.4477 19.5523 10 19 10L10 10C9.44772 10 9 10.4477 9 11C9 11.5523 9.44772 12 10 12L18 12L18 20C18 20.5523 18.4477 21 19 21C19.5523 21 20 20.5523 20 20L20 11ZM11.7071 19.7071L19.7071 11.7071L18.2929 10.2929L10.2929 18.2929L11.7071 19.7071Z" fill="#8566FF"/>
</svg>
