<svg width="287" height="38" viewBox="0 0 287 38" fill="none" xmlns="http://www.w3.org/2000/svg">
<path d="M-0.000488281 6.01834V1.8472H21.1167V6.01834H12.7213V27.9314H8.32067V6.01834H-0.000488281Z" fill="white"/>
<path d="M75.0386 1.8472V12.8037H87.2803V1.8472H91.6809V27.9314H87.2803V16.9748H75.0386V27.9314H70.6379V1.8472H75.0386Z" fill="white"/>
<path d="M98.7561 1.8472L113.787 18.282V1.8472H118.187V27.9314H116.719L101.654 11.4617V27.9314H97.2531V1.8472H98.7561Z" fill="white"/>
<path d="M156.13 21.7444C156.913 22.8365 157.913 23.5859 159.136 23.9984C160.359 24.4109 161.605 24.6142 162.874 24.6142C163.359 24.6142 163.885 24.5619 164.451 24.4632C165.011 24.3644 165.537 24.1901 166.028 23.9403C166.514 23.6905 166.92 23.3652 167.24 22.9527C167.554 22.5402 167.714 22.029 167.714 21.4074C167.714 20.7858 167.514 20.2397 167.109 19.7692C166.703 19.2986 166.166 18.8629 165.497 18.4679C164.822 18.0728 164.062 17.701 163.205 17.3525C162.348 17.0039 161.473 16.6321 160.582 16.2371C159.69 15.842 158.816 15.4121 157.959 14.9532C157.101 14.4942 156.341 13.9598 155.667 13.3498C154.993 12.7398 154.455 12.0311 154.055 11.2236C153.649 10.416 153.449 9.48074 153.449 8.41181C153.449 7.14536 153.695 6.03577 154.181 5.07722C154.667 4.11867 155.318 3.32859 156.124 2.68956C156.93 2.05634 157.867 1.57997 158.93 1.25464C159.993 0.929314 161.096 0.772461 162.245 0.772461C163.931 0.772461 165.554 1.11521 167.12 1.79491C168.686 2.48042 170.063 3.41573 171.263 4.60666L168.366 7.88315C167.509 7.01174 166.548 6.34367 165.485 5.8731C164.422 5.40254 163.291 5.16436 162.096 5.16436C161.536 5.16436 160.999 5.22245 160.485 5.33283C159.97 5.44321 159.513 5.62911 159.107 5.89053C158.702 6.15196 158.382 6.50052 158.136 6.93622C157.89 7.37193 157.77 7.9122 157.77 8.55704C157.77 9.30064 158.124 9.92806 158.833 10.4393C159.542 10.9505 160.422 11.4327 161.473 11.8916C162.525 12.3506 163.668 12.8269 164.902 13.3266C166.137 13.8262 167.28 14.4245 168.332 15.1333C169.383 15.842 170.263 16.7134 170.972 17.7417C171.681 18.7758 172.035 20.048 172.035 21.5643C172.035 22.8307 171.755 23.9287 171.189 24.864C170.629 25.7935 169.909 26.572 169.029 27.1936C168.149 27.8152 167.154 28.2741 166.04 28.5704C164.925 28.8667 163.822 29.0177 162.719 29.0177C161.765 29.0177 160.822 28.9306 159.879 28.7563C158.936 28.582 158.033 28.309 157.164 27.9372C156.296 27.5654 155.484 27.0948 154.73 26.5197C153.97 25.9504 153.301 25.2648 152.712 24.469L156.124 21.7502L156.13 21.7444Z" fill="white"/>
<path d="M193.484 7.19765C193.118 6.19262 192.575 5.29217 191.855 4.49628C191.135 3.70039 190.232 3.06136 189.14 2.57918C188.054 2.097 186.786 1.85301 185.345 1.85301H176.876V6.02415H185.345C186.271 6.02415 187.043 6.2391 187.654 6.66318C188.266 7.08727 188.729 7.61592 189.049 8.24334C189.369 8.87075 189.523 9.55045 189.523 10.2941C189.523 11.0377 189.369 11.7174 189.066 12.3448C188.757 12.9722 188.294 13.495 187.671 13.9249C187.048 14.3548 186.271 14.564 185.345 14.564H176.876V27.943H181.276V18.7409H185.345C186.786 18.7409 188.054 18.4969 189.14 18.0147C190.226 17.5326 191.129 16.8993 191.855 16.1151C192.575 15.3308 193.118 14.4303 193.484 13.4137C193.849 12.397 194.032 11.363 194.032 10.3231C194.032 9.28322 193.849 8.2201 193.484 7.20926V7.19765Z" fill="white"/>
<path d="M30.0208 23.766H25.2202V27.9314H41.8282V23.7602H30.0208V23.766Z" fill="white"/>
<path d="M29.6208 12.7979H25.2202V16.9865H29.6208V16.9748H39.1878V12.8037H29.6208V12.7979Z" fill="white"/>
<path d="M25.2202 1.8472V6.01834H41.8282V1.8472H25.2202Z" fill="white"/>
<path d="M230.289 23.766H225.488V27.9314H242.096V23.7602H230.289V23.766Z" fill="white"/>
<path d="M229.889 12.7979H225.488V16.9865H229.889V16.9748H239.456V12.8037H229.889V12.7979Z" fill="white"/>
<path d="M225.488 1.8472V6.01834H242.096V1.8472H225.488Z" fill="white"/>
<path d="M275.198 23.766H270.397V27.9314H287V23.7602H275.198V23.766Z" fill="white"/>
<path d="M274.792 12.7979H270.397V16.9865H274.792V16.9748H284.365V12.8037H274.792V12.7979Z" fill="white"/>
<path d="M270.397 1.8472V6.01834H287V1.8472H270.397Z" fill="white"/>
<path d="M263.053 23.127L270.597 34.2752L265.305 34.2926L258.281 23.8241" fill="white"/>
<path d="M265.379 26.601L272.923 37.7492L267.631 37.7666L260.607 27.2981" fill="white"/>
<path d="M255.035 1.84139C256.721 1.84139 258.161 2.13767 259.361 2.73603C260.556 3.3344 261.505 4.10705 262.202 5.0656C262.899 6.02415 263.356 7.07565 263.579 8.23172C263.802 9.38778 263.768 10.5206 263.488 11.6244C263.208 12.7282 262.682 13.7564 261.91 14.6976C261.139 15.6445 260.122 16.3649 258.847 16.8587L266.288 27.9314H261.042L254.109 17.5325H251.32V27.9314H246.92V9.60273L251.246 6.01834L246.92 6.6109V1.84139H255.035ZM251.332 6.01834V13.3614H255.035C255.961 13.3614 256.738 13.1813 257.361 12.8153C257.984 12.4493 258.447 12.002 258.756 11.4617C259.058 10.9215 259.213 10.3347 259.213 9.68987C259.213 9.04503 259.053 8.45828 258.738 7.91801C258.418 7.37774 257.955 6.9246 257.344 6.56442C256.732 6.19843 255.961 6.01834 255.035 6.01834H251.332Z" fill="white"/>
<path d="M136.384 1.24883C138.019 1.24883 139.63 1.53349 141.213 2.10281C142.797 2.67213 144.208 3.5203 145.443 4.65313C146.677 5.78015 147.672 7.20345 148.426 8.91142C149.18 10.6252 149.563 12.6062 149.563 14.866C149.563 17.1259 149.186 19.1359 148.426 20.8381C147.672 22.5344 146.677 23.9519 145.443 25.0789C144.208 26.206 142.802 27.0599 141.213 27.6293C139.625 28.1986 138.019 28.4832 136.384 28.4832C134.75 28.4832 133.104 28.1986 131.515 27.6293C129.926 27.0599 128.52 26.2118 127.286 25.0789C126.051 23.9519 125.057 22.5344 124.303 20.8381C123.548 19.1417 123.165 17.1491 123.165 14.866C123.165 12.9315 123.445 11.1829 124.005 9.62016H128.909C128.446 10.3173 128.086 11.0957 127.829 11.9613C127.572 12.8328 127.446 13.7971 127.446 14.866C127.446 16.4055 127.703 17.7359 128.212 18.8629C128.726 19.9899 129.4 20.9427 130.241 21.7095C131.081 22.4763 132.035 23.0515 133.098 23.4233C134.161 23.7951 135.253 23.981 136.373 23.981C137.493 23.981 138.556 23.7951 139.63 23.4233C140.705 23.0515 141.654 22.4821 142.488 21.7095C143.317 20.9427 143.991 19.9899 144.5 18.8629C145.014 17.7359 145.265 16.3997 145.265 14.866C145.265 13.3324 145.008 12.0252 144.5 10.8866C143.985 9.74797 143.317 8.78942 142.488 8.02258C141.659 7.25574 140.705 6.68061 139.63 6.30881C138.556 5.93701 137.47 5.75111 136.373 5.75111C135.007 5.75111 133.687 6.02996 132.418 6.58766C131.149 7.14536 130.086 7.98191 129.235 9.09732L126.194 5.82082C127.463 4.28133 128.995 3.13688 130.789 2.38166C132.584 1.62644 134.441 1.24883 136.373 1.24883H136.384Z" fill="white"/>
<path d="M65.4372 25.8458C64.3856 26.7172 63.2655 27.3737 62.0825 27.821C60.8937 28.2683 59.4592 28.4891 57.7733 28.4891C55.9159 28.4891 54.2528 28.2102 52.7897 27.6525C51.321 27.0948 50.0522 26.3338 48.9778 25.381C47.9033 24.4225 47.0232 23.3187 46.3374 22.0639C45.6516 20.809 45.1658 19.4787 44.8686 18.0786C44.5772 16.6728 44.48 15.2553 44.5772 13.8145C44.6743 12.3738 44.9658 10.9796 45.4573 9.6434H50.5894C50.0293 10.538 49.6293 11.514 49.395 12.5713C49.1607 13.6286 49.0864 14.6918 49.1778 15.7549C49.2635 16.8238 49.5093 17.8579 49.9093 18.8687C50.3094 19.8795 50.8752 20.7626 51.5953 21.5352C52.3154 22.3079 53.1955 22.9237 54.2356 23.3826C55.2758 23.8415 56.4645 24.0739 57.8076 24.0739C58.4934 24.0739 59.1049 24.0158 59.6421 23.9055C60.1793 23.7951 60.6537 23.644 61.0709 23.4581C61.4881 23.2722 61.8424 23.0805 62.1339 22.8772C62.4254 22.6797 62.6711 22.4821 62.8654 22.2788L65.4315 25.8574L65.4372 25.8458ZM47.5833 5.83244C48.6806 4.46723 50.0808 3.36926 51.7782 2.53271C53.4755 1.70196 55.4758 1.28369 57.7733 1.28369C59.1392 1.28369 60.4879 1.51606 61.8081 1.975C63.1283 2.43395 64.3399 3.0846 65.4372 3.93277L62.8711 7.58687C62.3339 7.08727 61.631 6.65737 60.7623 6.27976C59.8936 5.90796 58.9106 5.72206 57.8133 5.72206C56.1731 5.72206 54.7729 6.0532 53.5956 6.70966C52.424 7.36612 51.481 8.23172 50.7723 9.30064L47.5833 5.83244Z" fill="white"/>
<path d="M198.873 1.8472H203.274V12.8037H215.515V1.8472H219.916V27.9314H215.515V16.9748H203.274V27.9314H198.873V20.629L203.274 16.9748H198.873V1.8472Z" fill="white"/>
</svg>
