<?xml version="1.0" encoding="UTF-8"?>
<svg id="Layer_1" data-name="Layer 1" xmlns="http://www.w3.org/2000/svg" xmlns:xlink="http://www.w3.org/1999/xlink" viewBox="0 0 502.18 101.94">
  <defs>
    <style>
      .cls-1 {
        fill: url(#linear-gradient);
      }

      .cls-2 {
        fill: #fff;
      }
    </style>
    <linearGradient id="linear-gradient" x1="368.15" y1="84.4" x2="392.23" y2="98.3" gradientUnits="userSpaceOnUse">
      <stop offset=".08" stop-color="#29368e"/>
      <stop offset=".24" stop-color="#406ab1"/>
      <stop offset=".38" stop-color="#5292cd"/>
      <stop offset=".49" stop-color="#5dabde"/>
      <stop offset=".56" stop-color="#62b5e5"/>
      <stop offset=".64" stop-color="#5aa5db"/>
      <stop offset=".8" stop-color="#477ec1"/>
      <stop offset="1" stop-color="#2b449c"/>
    </linearGradient>
  </defs>
  <g>
    <path class="cls-2" d="M0,9.04V1.86H36.95v7.18h-14.69V46.76h-7.7V9.04H0Z"/>
    <path class="cls-2" d="M131.3,1.86V20.72h21.42V1.86h7.7V46.76h-7.7V27.9h-21.42v18.86h-7.7V1.86h7.7Z"/>
    <path class="cls-2" d="M172.8,1.86l26.3,28.29V1.86h7.7V46.76h-2.57l-26.36-28.35v28.35h-7.7V1.86h2.63Z"/>
    <path class="cls-2" d="M273.19,36.11c1.37,1.88,3.12,3.17,5.26,3.88,2.14,.71,4.32,1.06,6.54,1.06,.85,0,1.77-.09,2.76-.26,.98-.17,1.9-.47,2.76-.9,.85-.43,1.56-.99,2.12-1.7,.55-.71,.83-1.59,.83-2.66s-.35-2.01-1.06-2.82c-.71-.81-1.65-1.56-2.82-2.24-1.18-.68-2.51-1.32-4.01-1.92-1.5-.6-3.03-1.24-4.59-1.92-1.56-.68-3.09-1.42-4.59-2.21-1.5-.79-2.83-1.71-4.01-2.76-1.18-1.05-2.12-2.27-2.82-3.66-.71-1.39-1.06-3-1.06-4.84,0-2.18,.43-4.09,1.28-5.74,.85-1.65,1.99-3.01,3.4-4.11,1.41-1.09,3.05-1.91,4.91-2.47,1.86-.56,3.79-.83,5.8-.83,2.95,0,5.79,.59,8.53,1.76,2.74,1.18,5.15,2.79,7.25,4.84l-5.07,5.64c-1.5-1.5-3.18-2.65-5.04-3.46-1.86-.81-3.84-1.22-5.93-1.22-.98,0-1.92,.1-2.82,.29-.9,.19-1.7,.51-2.41,.96-.71,.45-1.27,1.05-1.7,1.8-.43,.75-.64,1.68-.64,2.79,0,1.28,.62,2.36,1.86,3.24,1.24,.88,2.78,1.71,4.62,2.5,1.84,.79,3.84,1.61,6,2.47,2.16,.86,4.16,1.89,6,3.11,1.84,1.22,3.38,2.72,4.62,4.49,1.24,1.78,1.86,3.97,1.86,6.58,0,2.18-.49,4.07-1.48,5.68-.98,1.6-2.24,2.94-3.78,4.01-1.54,1.07-3.28,1.86-5.23,2.37-1.95,.51-3.88,.77-5.81,.77-1.67,0-3.32-.15-4.97-.45-1.65-.3-3.23-.77-4.75-1.41-1.52-.64-2.94-1.45-4.26-2.44-1.33-.98-2.5-2.16-3.53-3.53l5.97-4.68Z"/>
  </g>
  <path class="cls-2" d="M338.55,11.07c-.64-1.73-1.59-3.28-2.85-4.65-1.26-1.37-2.84-2.47-4.75-3.3-1.9-.83-4.12-1.25-6.64-1.25h-14.82v7.18h14.82c1.62,0,2.97,.37,4.04,1.1,1.07,.73,1.88,1.64,2.44,2.72,.56,1.08,.83,2.25,.83,3.53s-.27,2.45-.8,3.53c-.54,1.08-1.35,1.98-2.44,2.72s-2.45,1.1-4.07,1.1h-14.82v23.03h7.7v-15.84h7.12c2.52,0,4.74-.42,6.64-1.25,1.9-.83,3.48-1.92,4.75-3.27,1.26-1.35,2.21-2.9,2.85-4.65,.64-1.75,.96-3.53,.96-5.32s-.32-3.62-.96-5.36Z"/>
  <polygon class="cls-2" points="52.53 39.59 44.13 39.59 44.13 46.76 73.19 46.76 73.19 39.58 52.53 39.58 52.53 39.59"/>
  <g>
    <polygon class="cls-2" points="51.83 20.71 44.13 20.71 44.13 27.92 51.83 27.92 51.83 27.9 68.57 27.9 68.57 20.72 51.83 20.72 51.83 20.71"/>
    <polygon class="cls-2" points="44.13 1.86 44.13 9.04 52.53 9.04 52.53 9.04 73.19 9.04 73.19 1.86 44.13 1.86"/>
  </g>
  <polygon class="cls-2" points="402.95 39.59 394.55 39.59 394.55 46.76 423.61 46.76 423.61 39.58 402.95 39.58 402.95 39.59"/>
  <g>
    <polygon class="cls-2" points="402.25 20.71 394.55 20.71 394.55 27.92 402.25 27.92 402.25 27.9 418.99 27.9 418.99 20.72 402.25 20.72 402.25 20.71"/>
    <polygon class="cls-2" points="394.55 1.86 394.55 9.04 402.95 9.04 402.95 9.04 423.61 9.04 423.61 1.86 394.55 1.86"/>
  </g>
  <polygon class="cls-2" points="481.53 39.59 473.13 39.59 473.13 46.76 502.18 46.76 502.18 39.58 481.53 39.58 481.53 39.59"/>
  <g>
    <polygon class="cls-2" points="480.82 20.71 473.13 20.71 473.13 27.92 480.82 27.92 480.82 27.9 497.57 27.9 497.57 20.72 480.82 20.72 480.82 20.71"/>
    <polygon class="cls-2" points="473.13 1.86 473.13 9.04 481.53 9.04 481.53 9.04 502.18 9.04 502.18 1.86 473.13 1.86"/>
  </g>
  <path class="cls-2" d="M460.28,38.49l13.2,19.19-9.26,.03-12.29-18.02"/>
  <path class="cls-2" d="M464.35,44.47l13.2,19.19-9.26,.03-12.29-18.02"/>
  <path class="cls-2" d="M446.25,1.85c2.95,0,5.47,.51,7.57,1.54,2.09,1.03,3.75,2.36,4.97,4.01,1.22,1.65,2.02,3.46,2.41,5.45s.33,3.94-.16,5.84c-.49,1.9-1.41,3.67-2.76,5.29-1.35,1.63-3.13,2.87-5.36,3.72l13.02,19.06h-9.18l-12.13-17.9h-4.88v17.9h-7.7V15.21l7.57-6.17-7.57,1.02V1.85h14.18Zm-6.48,7.19v12.64h6.48c1.62,0,2.98-.31,4.07-.94,1.09-.63,1.9-1.4,2.44-2.33,.53-.93,.8-1.94,.8-3.05s-.28-2.12-.83-3.05c-.56-.93-1.37-1.71-2.44-2.33-1.07-.63-2.42-.94-4.04-.94h-6.48Z"/>
  <path class="cls-2" d="M238.64,.83c2.86,0,5.68,.49,8.45,1.47,2.77,.98,5.24,2.44,7.4,4.39,2.16,1.94,3.9,4.39,5.22,7.33,1.32,2.95,1.99,6.36,1.99,10.25s-.66,7.35-1.99,10.28c-1.32,2.92-3.06,5.36-5.22,7.3-2.16,1.94-4.62,3.41-7.4,4.39-2.78,.98-5.59,1.47-8.45,1.47s-5.74-.49-8.52-1.47c-2.78-.98-5.24-2.44-7.4-4.39-2.16-1.94-3.9-4.38-5.22-7.3-1.32-2.92-1.99-6.35-1.99-10.28,0-3.33,.49-6.34,1.47-9.03h8.58c-.81,1.2-1.44,2.54-1.89,4.03-.45,1.5-.67,3.16-.67,5,0,2.65,.45,4.94,1.34,6.88,.9,1.94,2.08,3.58,3.55,4.9,1.47,1.32,3.14,2.31,5,2.95,1.86,.64,3.77,.96,5.73,.96s3.82-.32,5.7-.96c1.88-.64,3.54-1.62,5-2.95,1.45-1.32,2.63-2.96,3.52-4.9,.9-1.94,1.34-4.24,1.34-6.88s-.45-4.89-1.34-6.85c-.9-1.96-2.07-3.61-3.52-4.93-1.45-1.32-3.12-2.31-5-2.95-1.88-.64-3.78-.96-5.7-.96-2.39,0-4.7,.48-6.92,1.44-2.22,.96-4.08,2.4-5.57,4.32l-5.32-5.64c2.22-2.65,4.9-4.62,8.04-5.92,3.14-1.3,6.39-1.95,9.77-1.95Z"/>
  <path class="cls-2" d="M114.5,43.17c-1.84,1.5-3.8,2.63-5.87,3.4-2.08,.77-4.59,1.15-7.54,1.15-3.25,0-6.16-.48-8.72-1.44-2.57-.96-4.79-2.27-6.67-3.91-1.88-1.65-3.42-3.55-4.62-5.71-1.2-2.16-2.05-4.45-2.57-6.86-.51-2.42-.68-4.86-.51-7.34,.17-2.48,.68-4.88,1.54-7.18h8.98c-.98,1.54-1.68,3.22-2.09,5.04-.41,1.82-.54,3.65-.38,5.48,.15,1.84,.58,3.62,1.28,5.36s1.69,3.26,2.95,4.59c1.26,1.33,2.8,2.39,4.62,3.18,1.82,.79,3.9,1.19,6.25,1.19,1.2,0,2.27-.1,3.21-.29,.94-.19,1.77-.45,2.5-.77,.73-.32,1.35-.65,1.86-1,.51-.34,.94-.68,1.28-1.03l4.49,6.16ZM83.26,8.72c1.92-2.35,4.37-4.24,7.34-5.68,2.97-1.43,6.47-2.15,10.49-2.15,2.39,0,4.75,.4,7.06,1.19,2.31,.79,4.43,1.91,6.35,3.37l-4.49,6.29c-.94-.86-2.17-1.6-3.69-2.25-1.52-.64-3.24-.96-5.16-.96-2.87,0-5.32,.57-7.38,1.7-2.05,1.13-3.7,2.62-4.94,4.46l-5.58-5.97Z"/>
  <path class="cls-2" d="M347.98,1.86h7.7V20.72h21.42V1.86h7.7V46.76h-7.7V27.9h-21.42v18.86h-7.7v-12.57l7.7-6.29h-7.7V1.86Z"/>
  <g>
    <path class="cls-2" d="M319.25,72.11v-7.92h2.97c.67,0,1.25,.11,1.73,.32,.48,.22,.85,.52,1.11,.93,.26,.4,.39,.89,.39,1.47s-.13,1.04-.39,1.44c-.26,.4-.63,.71-1.11,.93-.48,.22-1.06,.33-1.73,.33h-2.5l.37-.4v2.9h-.84Zm.84-2.83l-.37-.41h2.48c.79,0,1.39-.17,1.81-.52,.41-.34,.62-.83,.62-1.45s-.21-1.12-.62-1.47c-.41-.35-1.01-.52-1.81-.52h-2.48l.37-.4v4.76Z"/>
    <path class="cls-2" d="M330.84,72.18c-.6,0-1.15-.1-1.66-.3-.51-.2-.95-.48-1.32-.85-.37-.37-.66-.79-.87-1.28-.21-.49-.31-1.02-.31-1.6s.1-1.11,.31-1.6c.21-.49,.5-.91,.87-1.28,.37-.37,.81-.65,1.32-.85,.5-.2,1.06-.3,1.66-.3s1.15,.1,1.65,.3c.5,.2,.94,.48,1.32,.84,.37,.36,.66,.79,.87,1.28,.21,.49,.31,1.03,.31,1.61s-.1,1.12-.31,1.61c-.21,.49-.5,.92-.87,1.28-.37,.36-.81,.64-1.32,.84-.51,.2-1.06,.3-1.65,.3Zm0-.75c.47,0,.91-.08,1.32-.24,.4-.16,.75-.39,1.05-.69,.3-.3,.53-.65,.7-1.04,.17-.4,.25-.83,.25-1.31s-.08-.91-.25-1.31c-.17-.4-.4-.74-.7-1.04-.3-.3-.65-.53-1.05-.69-.4-.16-.84-.24-1.32-.24s-.92,.08-1.32,.24c-.41,.16-.76,.39-1.06,.69s-.54,.65-.7,1.04c-.17,.4-.25,.83-.25,1.31s.08,.9,.25,1.3c.17,.4,.4,.75,.7,1.05,.3,.3,.66,.53,1.06,.69,.41,.16,.85,.24,1.32,.24Z"/>
    <path class="cls-2" d="M338.44,72.11l-2.67-7.92h.86l2.5,7.46h-.43l2.58-7.46h.77l2.55,7.46h-.41l2.52-7.46h.8l-2.67,7.92h-.88l-2.43-7.07h.23l-2.45,7.07h-.87Z"/>
    <path class="cls-2" d="M349.88,71.38h4.76v.72h-5.6v-7.92h5.43v.72h-4.59v6.47Zm-.09-3.66h4.19v.71h-4.19v-.71Z"/>
    <path class="cls-2" d="M356.61,72.11v-7.92h2.97c.67,0,1.25,.11,1.73,.32,.48,.22,.85,.52,1.11,.93,.26,.4,.39,.89,.39,1.47s-.13,1.04-.39,1.44c-.26,.4-.63,.71-1.11,.93-.48,.21-1.06,.32-1.73,.32h-2.5l.37-.38v2.9h-.84Zm.84-2.83l-.37-.4h2.48c.79,0,1.39-.17,1.81-.52s.62-.83,.62-1.46-.21-1.12-.62-1.47c-.41-.35-1.01-.52-1.81-.52h-2.48l.37-.4v4.76Zm4.57,2.83l-2.04-2.87h.91l2.05,2.87h-.92Z"/>
    <path class="cls-2" d="M365.63,71.38h4.76v.72h-5.6v-7.92h5.43v.72h-4.59v6.47Zm-.09-3.66h4.19v.71h-4.19v-.71Z"/>
    <path class="cls-2" d="M372.37,72.11v-7.92h3.23c.84,0,1.59,.17,2.22,.5,.64,.34,1.13,.8,1.49,1.4,.36,.6,.53,1.28,.53,2.06s-.18,1.46-.53,2.06c-.35,.6-.85,1.06-1.49,1.4-.64,.34-1.38,.5-2.22,.5h-3.23Zm.84-.72h2.34c.7,0,1.31-.14,1.83-.41,.52-.28,.92-.66,1.21-1.14,.29-.49,.43-1.05,.43-1.68s-.14-1.2-.43-1.69c-.29-.48-.69-.86-1.21-1.14-.52-.28-1.13-.41-1.83-.41h-2.34v6.47Z"/>
    <path class="cls-2" d="M384.68,72.11v-7.92h3.42c.88,0,1.57,.18,2.05,.53,.49,.35,.73,.86,.73,1.51,0,.43-.1,.79-.3,1.09-.2,.29-.47,.52-.81,.67-.34,.15-.72,.23-1.13,.23l.19-.27c.5,0,.94,.08,1.31,.23,.37,.15,.65,.38,.85,.69s.31,.68,.31,1.14c0,.67-.25,1.19-.74,1.56-.49,.37-1.24,.55-2.24,.55h-3.64Zm.84-.69h2.79c.69,0,1.23-.12,1.6-.36,.37-.24,.55-.62,.55-1.14s-.18-.89-.55-1.13c-.37-.24-.9-.36-1.6-.36h-2.89v-.69h2.61c.63,0,1.13-.12,1.48-.36,.35-.24,.53-.6,.53-1.08s-.18-.84-.53-1.08c-.35-.24-.84-.36-1.48-.36h-2.52v6.54Z"/>
    <path class="cls-2" d="M394.94,72.11v-2.94l.19,.52-3.36-5.5h.89l2.95,4.83h-.48l2.95-4.83h.84l-3.36,5.5,.19-.52v2.94h-.83Z"/>
  </g>
  <path class="cls-2" d="M370.5,88.8v13.1c.17,0,.34,0,.5,0,5.38,0,10.77,.02,16.15,.03,.99,0,1.91-.26,2.76-.76,1.24-.73,2.08-1.82,2.73-3.08,.78-1.51,1.16-3.13,1.37-4.8,.13-1.04,.17-2.09,.07-3.14-.07-.71-.05-1.43-.23-2.13-.21-.78-.32-1.59-.56-2.35-.48-1.48-1.17-2.84-2.29-3.96-1.02-1.02-2.2-1.67-3.63-1.68-5.49-.04-10.98-.03-16.48-.03-.13,0-.26,0-.4,0-.02,.08-.05,.13-.06,.19-.17,1.76,.53,3.28,2.38,3.91,.86,.29,1.75,.35,2.65,.35,3.23,0,6.45-.01,9.68,0,.38,0,.77,0,1.14,.09,.88,.19,1.5,.78,2.12,1.4,.31,.31,.44,.68,.59,1.06,.1,.26,.25,.49,.34,.77,.64,1.99,.74,3.99,.3,6.02-.23,1.04-.58,2.03-1.34,2.82-.58,.61-1.26,.93-2.13,.93-3.8-.01-7.6,0-11.4,0-.13,0-.25,0-.41,0v-8.71h-3.84Z"/>
  <path class="cls-2" d="M344.96,80c-.3,1.97,.57,3.49,2.33,4.1,.78,.27,1.59,.33,2.41,.33,3.9,0,7.79,0,11.69,0,.25,0,.5,0,.75,.03,1.19,.1,2.01,.98,2.01,2.16,0,2.89,0,5.78,0,8.67,0,1.14-.69,1.96-1.81,2.17-.25,.05-.5,.05-.75,.05-1.92,0-3.84,0-5.76,0-1.57,0-3.14,.01-4.71,0-1.54-.01-2.37-.87-2.37-2.4,0-1.98,0-3.96,0-5.94,0-.13,0-.25,0-.38h-3.87c0,.15,0,.28,0,.4,0,1.95,0,3.91,0,5.86,0,.48,0,.96,.06,1.44,.27,2.12,1.24,3.78,3.2,4.76,1.03,.51,2.13,.68,3.27,.68,3.24,0,6.47,0,9.71,0,.5,0,1.01-.01,1.51-.08,2.14-.28,3.78-1.3,4.72-3.29,.44-.92,.62-1.91,.62-2.93,0-3.13,0-6.26,0-9.39,0-.37-.02-.74-.08-1.11-.35-2.13-1.43-3.73-3.45-4.61-.93-.4-1.91-.54-2.91-.54-5.43,0-10.86,0-16.3,0-.08,0-.17,0-.27,0Z"/>
  <path class="cls-2" d="M428.95,91.5c-2.72,3.48-5.42,6.94-8.16,10.44,1.87,0,3.67,0,5.48,0,.09,0,.21-.09,.28-.17,5.18-6.73,10.36-13.46,15.54-20.2,.39-.51,.78-1.02,1.21-1.57h-.41c-1.44,0-2.88,0-4.32,0-.27,0-.46,.07-.63,.3-.92,1.19-1.87,2.37-2.8,3.56-.98,1.24-1.97,2.47-2.96,3.73-.12-.11-.23-.2-.33-.3-1.84-1.67-3.52-3.5-5.11-5.41-.54-.65-1.17-1.2-1.96-1.55-1.33-.6-3-.33-3.95,.65,2.7,3.49,5.4,6.99,8.12,10.52Z"/>
  <path class="cls-2" d="M401.8,97.49s-.02-.04-.02-.07c3.78-2.87,7.55-5.73,11.37-8.63-.1-.01-.13-.02-.17-.02-1.99,0-3.98,0-5.97,0-.14,0-.3,.07-.42,.15-3.69,2.8-7.38,5.61-11.07,8.42-.15,.11-.21,.22-.21,.41,0,1.33,0,2.66,0,3.99,0,.06,.01,.11,.02,.16h23.02v-4.42h-16.55Z"/>
  <path class="cls-2" d="M323.23,88.82h-3.83v.37c0,2.11,0,4.22,0,6.33,0,.52,.04,1.06,.15,1.57,.41,2.01,1.5,3.5,3.42,4.31,.95,.4,1.96,.54,2.98,.53,5.38,0,10.76,0,16.15,0,.1,0,.21-.01,.31-.02v-4.42h-.41c-3.94,0-7.89,0-11.83,0-1.51,0-3.02,0-4.53,0-1.58-.01-2.41-.85-2.41-2.43,0-1.94,0-3.88,0-5.83,0-.13,0-.26,0-.43Z"/>
  <path class="cls-2" d="M395.39,80.01c-.29,1.43,.21,3.19,1.93,3.94,.87,.38,1.78,.47,2.71,.47,5.99,0,11.99,0,17.98,0,.11,0,.23-.01,.35-.02v-4.39h-22.97Z"/>
  <path class="cls-2" d="M319.37,84.37c.09,0,.15,.02,.21,.02,6.09,.01,12.18,.03,18.26,.03,.58,0,1.18-.06,1.75-.19,1.15-.24,2.09-.83,2.59-1.95,.32-.73,.4-1.48,.25-2.28-.1,0-.17,0-.25,0-5.45,0-10.91,0-16.36,0-.55,0-1.1,.05-1.64,.15-2.21,.43-3.82,1.62-4.66,3.76-.06,.14-.09,.29-.14,.45Z"/>
  <path class="cls-2" d="M442.71,101.94c-2.1-2.69-4.15-5.31-6.23-7.97-.87,1.29-1.72,2.55-2.57,3.8,1.04,1.37,2.06,2.71,3.09,4.05,.05,.07,.18,.11,.27,.11,1.78,0,3.57,0,5.44,0Z"/>
  <path class="cls-1" d="M370.5,88.8h3.84v8.71c.15,0,.28,0,.41,0,3.8,0,7.6-.02,11.4,0,.86,0,1.54-.32,2.13-.93,.76-.79,1.12-1.78,1.34-2.82,.44-2.03,.34-4.04-.3-6.02-.09-.28-.24-.51-.34-.77-.15-.38-.28-.75-.59-1.06-.61-.62-1.24-1.21-2.12-1.4-.37-.08-.76-.09-1.14-.09-3.23,0-6.45,0-9.68,0-.9,0-1.79-.05-2.65-.35-1.85-.63-2.55-2.15-2.38-3.91,0-.06,.03-.11,.06-.19,.13,0,.26,0,.4,0,5.49,0,10.98,0,16.48,.03,1.42,.01,2.61,.66,3.63,1.68,1.12,1.13,1.81,2.49,2.29,3.96,.25,.77,.36,1.57,.56,2.35,.18,.7,.17,1.42,.23,2.13,.1,1.06,.06,2.1-.07,3.14-.2,1.67-.59,3.29-1.37,4.8-.65,1.26-1.49,2.35-2.73,3.08-.85,.5-1.77,.76-2.76,.76-5.38-.01-10.77-.02-16.15-.03-.16,0-.33,0-.5,0v-13.1Z"/>
  <path class="cls-2" d="M344.96,80c.11,0,.19,0,.27,0,5.43,0,10.86,0,16.3,0,1,0,1.99,.14,2.91,.54,2.03,.87,3.1,2.48,3.45,4.61,.06,.36,.08,.74,.08,1.11,0,3.13,0,6.26,0,9.39,0,1.02-.18,2.01-.62,2.93-.94,2-2.58,3.02-4.72,3.29-.5,.06-1,.07-1.51,.08-3.24,0-6.47,0-9.71,0-1.14,0-2.25-.17-3.27-.68-1.96-.98-2.93-2.64-3.2-4.76-.06-.47-.06-.96-.06-1.44,0-1.95,0-3.91,0-5.86,0-.13,0-.26,0-.4h3.87c0,.12,0,.25,0,.38,0,1.98,0,3.96,0,5.94,0,1.53,.83,2.39,2.37,2.4,1.57,.01,3.14,0,4.71,0,1.92,0,3.84,0,5.76,0,.25,0,.51,0,.75-.05,1.11-.21,1.81-1.03,1.81-2.17,0-2.89,0-5.78,0-8.67,0-1.19-.82-2.06-2.01-2.16-.25-.02-.5-.03-.75-.03-3.9,0-7.79,0-11.69,0-.82,0-1.63-.06-2.41-.33-1.76-.61-2.63-2.13-2.33-4.1Z"/>
  <path class="cls-2" d="M428.95,91.5c-2.73-3.53-5.43-7.03-8.12-10.52,.95-.98,2.62-1.25,3.95-.65,.78,.35,1.41,.9,1.96,1.55,1.59,1.91,3.27,3.73,5.11,5.41,.11,.1,.21,.19,.33,.3,1-1.26,1.98-2.49,2.96-3.73,.94-1.18,1.88-2.36,2.8-3.56,.17-.22,.35-.3,.63-.3,1.44,.01,2.88,0,4.32,0h.41c-.43,.56-.82,1.06-1.21,1.57-5.18,6.73-10.36,13.47-15.54,20.2-.06,.08-.18,.17-.28,.17-1.81,0-3.62,0-5.48,0,2.73-3.5,5.43-6.96,8.16-10.44Z"/>
  <path class="cls-2" d="M401.8,97.49h16.55v4.42h-23.02s-.02-.1-.02-.16c0-1.33,0-2.66,0-3.99,0-.19,.06-.3,.21-.41,3.69-2.8,7.38-5.61,11.07-8.42,.11-.09,.28-.15,.42-.15,1.99,0,3.98,0,5.97,0,.03,0,.07,0,.17,.02-3.82,2.9-7.59,5.76-11.37,8.63,0,.02,.02,.04,.02,.07Z"/>
  <path class="cls-2" d="M323.23,88.82c0,.16,0,.3,0,.43,0,1.94,0,3.88,0,5.83,0,1.58,.83,2.42,2.41,2.43,1.51,0,3.02,0,4.53,0,3.94,0,7.89,0,11.83,0h.41v4.42c-.1,0-.21,.02-.31,.02-5.38,0-10.76,0-16.15,0-1.03,0-2.03-.13-2.98-.53-1.92-.81-3.01-2.3-3.42-4.31-.1-.51-.14-1.05-.15-1.57-.02-2.11,0-4.22,0-6.33v-.37h3.83Z"/>
  <path class="cls-2" d="M395.39,80.01h22.97v4.39c-.12,0-.23,.02-.35,.02-5.99,0-11.99,0-17.98,0-.93,0-1.84-.09-2.71-.47-1.73-.75-2.22-2.51-1.93-3.94Z"/>
  <path class="cls-2" d="M319.37,84.37c.05-.16,.09-.31,.14-.45,.84-2.14,2.45-3.34,4.66-3.76,.54-.1,1.09-.15,1.64-.15,5.45-.01,10.91,0,16.36,0,.07,0,.14,0,.25,0,.16,.8,.07,1.55-.25,2.28-.49,1.13-1.43,1.71-2.59,1.95-.57,.12-1.16,.19-1.75,.19-6.09,0-12.18-.01-18.26-.03-.06,0-.12-.01-.21-.02Z"/>
  <path class="cls-2" d="M442.71,101.94c-1.87,0-3.66,0-5.44,0-.09,0-.22-.04-.27-.11-1.03-1.34-2.05-2.68-3.09-4.05,.85-1.26,1.7-2.51,2.57-3.8,2.08,2.66,4.13,5.28,6.23,7.97Z"/>
</svg>