<?xml version="1.0" encoding="UTF-8"?>
<svg id="Layer_1" data-name="Layer 1" xmlns="http://www.w3.org/2000/svg" xmlns:xlink="http://www.w3.org/1999/xlink" viewBox="0 0 537.01 54.08">
  <defs>
    <style>
      .cls-1 {
        fill: url(#linear-gradient);
      }

      .cls-2 {
        fill: #fff;
      }
    </style>
    <linearGradient id="linear-gradient" x1="481.28" y1="28.51" x2="499.13" y2="38.82" gradientUnits="userSpaceOnUse">
      <stop offset=".08" stop-color="#29368e"/>
      <stop offset=".24" stop-color="#406ab1"/>
      <stop offset=".38" stop-color="#5292cd"/>
      <stop offset=".49" stop-color="#5dabde"/>
      <stop offset=".56" stop-color="#62b5e5"/>
      <stop offset=".64" stop-color="#5aa5db"/>
      <stop offset=".8" stop-color="#477ec1"/>
      <stop offset="1" stop-color="#2b449c"/>
    </linearGradient>
  </defs>
  <g>
    <path class="cls-2" d="M0,7.68V1.58H31.37V7.68h-12.47V39.71h-6.54V7.68H0Z"/>
    <path class="cls-2" d="M111.5,1.58V17.59h18.19V1.58h6.54V39.71h-6.54V23.69h-18.19v16.01h-6.54V1.58h6.54Z"/>
    <path class="cls-2" d="M146.74,1.58l22.33,24.02V1.58h6.54V39.71h-2.18l-22.39-24.07v24.07h-6.54V1.58h2.23Z"/>
    <path class="cls-2" d="M231.98,30.67c1.16,1.6,2.65,2.7,4.47,3.3,1.82,.6,3.67,.9,5.56,.9,.73,0,1.51-.07,2.34-.22,.84-.14,1.62-.4,2.34-.76,.73-.36,1.33-.84,1.8-1.44,.47-.6,.71-1.35,.71-2.26s-.3-1.71-.9-2.4c-.6-.69-1.4-1.33-2.4-1.91-1-.58-2.13-1.13-3.4-1.63-1.27-.51-2.57-1.05-3.89-1.63-1.33-.58-2.62-1.21-3.89-1.88-1.27-.67-2.41-1.45-3.4-2.34-1-.89-1.8-1.92-2.4-3.1-.6-1.18-.9-2.55-.9-4.11,0-1.85,.36-3.48,1.09-4.87,.73-1.4,1.69-2.56,2.89-3.49,1.2-.93,2.59-1.62,4.17-2.1,1.58-.47,3.22-.71,4.93-.71,2.51,0,4.92,.5,7.24,1.5,2.32,1,4.38,2.37,6.16,4.11l-4.3,4.79c-1.27-1.27-2.7-2.25-4.28-2.94-1.58-.69-3.26-1.03-5.04-1.03-.84,0-1.63,.08-2.4,.25-.76,.16-1.44,.44-2.04,.82-.6,.38-1.08,.89-1.44,1.52-.36,.64-.54,1.43-.54,2.37,0,1.09,.53,2.01,1.58,2.75,1.05,.74,2.36,1.45,3.92,2.12,1.56,.67,3.26,1.37,5.09,2.1,1.83,.73,3.53,1.61,5.09,2.64,1.56,1.03,2.87,2.31,3.92,3.81,1.05,1.51,1.58,3.37,1.58,5.58,0,1.85-.42,3.46-1.25,4.82-.84,1.36-1.91,2.5-3.21,3.4-1.31,.91-2.79,1.58-4.44,2.02-1.65,.44-3.3,.65-4.93,.65-1.42,0-2.82-.13-4.22-.38-1.4-.25-2.74-.65-4.03-1.2-1.29-.54-2.5-1.23-3.62-2.07-1.13-.83-2.12-1.83-3-3l5.07-3.98Z"/>
  </g>
  <path class="cls-2" d="M287.48,9.4c-.54-1.47-1.35-2.79-2.42-3.95-1.07-1.16-2.42-2.1-4.03-2.81-1.62-.71-3.5-1.06-5.64-1.06h-12.58V7.68h12.58c1.38,0,2.52,.31,3.43,.93,.91,.62,1.6,1.39,2.07,2.31,.47,.92,.71,1.91,.71,3s-.23,2.08-.68,2.99c-.45,.92-1.14,1.68-2.07,2.31s-2.08,.93-3.46,.93h-12.58v19.55h6.54v-13.45h6.05c2.14,0,4.02-.35,5.64-1.06,1.62-.71,2.96-1.63,4.03-2.78,1.07-1.14,1.88-2.46,2.42-3.95,.55-1.49,.82-3,.82-4.52s-.27-3.08-.82-4.55Z"/>
  <polygon class="cls-2" points="44.61 33.62 37.47 33.62 37.47 39.71 62.15 39.71 62.15 33.61 44.61 33.61 44.61 33.62"/>
  <g>
    <polygon class="cls-2" points="44.01 17.59 37.47 17.59 37.47 23.71 44.01 23.71 44.01 23.69 58.23 23.69 58.23 17.59 44.01 17.59 44.01 17.59"/>
    <polygon class="cls-2" points="37.47 1.58 37.47 7.68 44.61 7.68 44.61 7.68 62.15 7.68 62.15 1.58 37.47 1.58"/>
  </g>
  <polygon class="cls-2" points="342.17 33.62 335.03 33.62 335.03 39.71 359.71 39.71 359.71 33.61 342.17 33.61 342.17 33.62"/>
  <g>
    <polygon class="cls-2" points="341.57 17.59 335.03 17.59 335.03 23.71 341.57 23.71 341.57 23.69 355.78 23.69 355.78 17.59 341.57 17.59 341.57 17.59"/>
    <polygon class="cls-2" points="335.03 1.58 335.03 7.68 342.17 7.68 342.17 7.68 359.71 7.68 359.71 1.58 335.03 1.58"/>
  </g>
  <polygon class="cls-2" points="408.89 33.62 401.76 33.62 401.76 39.71 426.43 39.71 426.43 33.61 408.89 33.61 408.89 33.62"/>
  <g>
    <polygon class="cls-2" points="408.29 17.59 401.76 17.59 401.76 23.71 408.29 23.71 408.29 23.69 422.51 23.69 422.51 17.59 408.29 17.59 408.29 17.59"/>
    <polygon class="cls-2" points="401.76 1.58 401.76 7.68 408.89 7.68 408.89 7.68 426.43 7.68 426.43 1.58 401.76 1.58"/>
  </g>
  <path class="cls-2" d="M390.85,32.68l11.21,16.29-7.86,.02-10.44-15.3"/>
  <path class="cls-2" d="M394.31,37.76l11.21,16.29-7.86,.02-10.44-15.3"/>
  <path class="cls-2" d="M378.93,1.57c2.51,0,4.65,.44,6.43,1.31,1.78,.87,3.19,2.01,4.22,3.41,1.03,1.4,1.72,2.94,2.04,4.63s.28,3.34-.14,4.96c-.42,1.62-1.2,3.12-2.34,4.49-1.14,1.38-2.66,2.43-4.55,3.16l11.06,16.18h-7.79l-10.3-15.2h-4.14v15.2h-6.54V12.91l6.43-5.24-6.43,.87V1.57h12.04Zm-5.5,6.1v10.73h5.5c1.38,0,2.53-.27,3.46-.8,.93-.53,1.62-1.19,2.07-1.98,.45-.79,.68-1.65,.68-2.59s-.24-1.8-.71-2.59c-.47-.79-1.16-1.45-2.07-1.98-.91-.53-2.05-.8-3.43-.8h-5.5Z"/>
  <path class="cls-2" d="M202.64,.71c2.43,0,4.82,.42,7.18,1.25,2.36,.83,4.45,2.08,6.28,3.73,1.83,1.65,3.31,3.72,4.43,6.23,1.12,2.5,1.69,5.4,1.69,8.7s-.56,6.25-1.69,8.73c-1.12,2.48-2.6,4.55-4.43,6.2-1.83,1.65-3.92,2.89-6.28,3.73-2.36,.83-4.75,1.25-7.18,1.25s-4.88-.42-7.23-1.25c-2.36-.83-4.45-2.07-6.28-3.73-1.83-1.65-3.31-3.72-4.43-6.2-1.12-2.48-1.69-5.39-1.69-8.73,0-2.83,.42-5.38,1.25-7.67h7.29c-.69,1.02-1.22,2.16-1.6,3.43-.38,1.27-.57,2.68-.57,4.24,0,2.25,.38,4.2,1.14,5.85,.76,1.65,1.77,3.04,3.02,4.16,1.25,1.12,2.66,1.96,4.24,2.5,1.58,.54,3.2,.82,4.87,.82s3.24-.27,4.84-.82c1.6-.54,3.01-1.38,4.24-2.5,1.23-1.12,2.23-2.51,2.99-4.16,.76-1.65,1.14-3.6,1.14-5.85s-.38-4.15-1.14-5.82c-.76-1.67-1.76-3.06-2.99-4.19-1.23-1.12-2.65-1.96-4.24-2.5-1.6-.54-3.21-.82-4.84-.82-2.03,0-3.99,.41-5.87,1.22-1.89,.82-3.46,2.04-4.73,3.67l-4.51-4.79c1.88-2.25,4.16-3.92,6.82-5.03,2.66-1.11,5.43-1.66,8.29-1.66Z"/>
  <path class="cls-2" d="M97.23,36.66c-1.56,1.27-3.22,2.23-4.98,2.89-1.76,.65-3.89,.98-6.4,.98-2.76,0-5.23-.41-7.41-1.23-2.18-.82-4.07-1.92-5.66-3.32-1.6-1.4-2.91-3.01-3.92-4.85-1.02-1.83-1.74-3.78-2.18-5.83-.44-2.05-.58-4.13-.44-6.24,.14-2.11,.58-4.14,1.31-6.1h7.63c-.84,1.31-1.43,2.73-1.77,4.28-.35,1.54-.45,3.1-.33,4.66,.13,1.56,.49,3.08,1.09,4.55s1.43,2.77,2.51,3.89c1.07,1.13,2.38,2.03,3.92,2.7,1.54,.67,3.31,1.01,5.31,1.01,1.02,0,1.92-.08,2.72-.25,.8-.16,1.51-.38,2.12-.65,.62-.27,1.14-.55,1.58-.84,.44-.29,.8-.58,1.09-.87l3.81,5.23ZM70.7,7.41c1.63-2,3.71-3.6,6.24-4.82,2.52-1.22,5.49-1.82,8.91-1.82,2.03,0,4.03,.34,5.99,1.01,1.96,.67,3.76,1.63,5.39,2.86l-3.81,5.34c-.8-.73-1.84-1.36-3.13-1.91-1.29-.54-2.75-.82-4.38-.82-2.43,0-4.52,.48-6.26,1.44-1.74,.96-3.14,2.22-4.19,3.79l-4.74-5.07Z"/>
  <path class="cls-2" d="M295.49,1.58h6.54V17.59h18.19V1.58h6.54V39.71h-6.54V23.69h-18.19v16.01h-6.54v-10.68l6.54-5.34h-6.54V1.58Z"/>
  <g>
    <path class="cls-2" d="M445.01,19.4v-5.88h2.2c.5,0,.93,.08,1.28,.24,.36,.16,.63,.39,.83,.69,.19,.3,.29,.66,.29,1.09s-.1,.77-.29,1.07c-.19,.3-.47,.53-.83,.69-.36,.16-.79,.24-1.28,.24h-1.86l.28-.29v2.15h-.62Zm.62-2.1l-.28-.3h1.84c.59,0,1.03-.13,1.34-.38,.3-.25,.46-.61,.46-1.08s-.15-.83-.46-1.09c-.3-.26-.75-.39-1.34-.39h-1.84l.28-.29v3.53Z"/>
    <path class="cls-2" d="M453.61,19.45c-.44,0-.85-.07-1.23-.22-.38-.15-.71-.36-.98-.63-.28-.27-.49-.59-.65-.95-.15-.36-.23-.76-.23-1.19s.08-.83,.23-1.19c.15-.36,.37-.68,.65-.95,.28-.27,.6-.48,.98-.63,.37-.15,.79-.22,1.23-.22s.85,.07,1.23,.22c.37,.15,.7,.36,.98,.63,.28,.27,.49,.58,.65,.95,.15,.36,.23,.76,.23,1.19s-.08,.83-.23,1.19c-.15,.36-.37,.68-.65,.95-.28,.27-.6,.48-.98,.63-.38,.15-.78,.22-1.23,.22Zm0-.55c.35,0,.68-.06,.98-.18,.3-.12,.56-.29,.78-.51,.22-.22,.39-.48,.52-.77,.12-.29,.18-.62,.18-.97s-.06-.68-.18-.97c-.12-.29-.29-.55-.52-.77-.22-.22-.48-.39-.78-.51-.3-.12-.63-.18-.98-.18s-.68,.06-.98,.18c-.3,.12-.57,.29-.79,.51s-.4,.48-.52,.77c-.12,.29-.18,.62-.18,.97s.06,.67,.18,.97c.12,.3,.3,.56,.52,.78,.22,.22,.49,.39,.79,.51,.3,.12,.63,.18,.98,.18Z"/>
    <path class="cls-2" d="M459.24,19.4l-1.98-5.88h.64l1.85,5.53h-.32l1.91-5.53h.57l1.89,5.53h-.3l1.87-5.53h.6l-1.98,5.88h-.65l-1.8-5.25h.17l-1.81,5.25h-.65Z"/>
    <path class="cls-2" d="M467.73,18.86h3.53v.54h-4.15v-5.88h4.03v.54h-3.41v4.8Zm-.07-2.71h3.11v.53h-3.11v-.53Z"/>
    <path class="cls-2" d="M472.72,19.4v-5.88h2.2c.5,0,.93,.08,1.28,.24,.36,.16,.63,.39,.83,.69,.19,.3,.29,.66,.29,1.09s-.1,.77-.29,1.07c-.19,.3-.47,.53-.83,.69-.36,.16-.79,.24-1.28,.24h-1.86l.28-.29v2.15h-.62Zm.62-2.1l-.28-.29h1.84c.59,0,1.03-.13,1.34-.39s.46-.62,.46-1.08-.15-.83-.46-1.09c-.3-.26-.75-.39-1.34-.39h-1.84l.28-.29v3.53Zm3.39,2.1l-1.51-2.13h.67l1.52,2.13h-.68Z"/>
    <path class="cls-2" d="M479.41,18.86h3.53v.54h-4.15v-5.88h4.03v.54h-3.41v4.8Zm-.07-2.71h3.11v.53h-3.11v-.53Z"/>
    <path class="cls-2" d="M484.4,19.4v-5.88h2.39c.63,0,1.18,.12,1.65,.37,.47,.25,.84,.59,1.1,1.04,.26,.44,.39,.95,.39,1.53s-.13,1.09-.39,1.53c-.26,.44-.63,.79-1.1,1.04-.47,.25-1.02,.37-1.65,.37h-2.39Zm.62-.54h1.74c.52,0,.97-.1,1.36-.31,.38-.2,.68-.49,.89-.85,.21-.36,.32-.78,.32-1.25s-.11-.89-.32-1.25c-.21-.36-.51-.64-.89-.84-.38-.2-.84-.31-1.36-.31h-1.74v4.8Z"/>
    <path class="cls-2" d="M493.53,19.4v-5.88h2.53c.65,0,1.16,.13,1.52,.39,.36,.26,.54,.64,.54,1.12,0,.32-.07,.59-.22,.81-.15,.22-.35,.38-.6,.5-.25,.11-.53,.17-.84,.17l.14-.2c.37,0,.7,.06,.97,.17,.27,.11,.48,.29,.63,.51s.23,.51,.23,.84c0,.5-.18,.88-.55,1.16-.37,.27-.92,.41-1.66,.41h-2.7Zm.62-.51h2.07c.51,0,.91-.09,1.18-.26,.27-.18,.41-.46,.41-.84s-.14-.66-.41-.84c-.27-.18-.67-.26-1.18-.26h-2.14v-.51h1.94c.47,0,.84-.09,1.1-.27,.26-.18,.39-.44,.39-.8s-.13-.63-.39-.8c-.26-.18-.63-.26-1.1-.26h-1.87v4.85Z"/>
    <path class="cls-2" d="M501.14,19.4v-2.18l.14,.39-2.49-4.08h.66l2.19,3.58h-.35l2.19-3.58h.62l-2.49,4.08,.14-.39v2.18h-.61Z"/>
  </g>
  <path class="cls-2" d="M483.02,31.78v9.72c.13,0,.25,0,.37,0,3.99,0,7.99,.01,11.98,.02,.74,0,1.42-.19,2.05-.56,.92-.54,1.54-1.35,2.02-2.28,.58-1.12,.86-2.32,1.01-3.56,.09-.77,.13-1.55,.05-2.33-.05-.53-.04-1.06-.17-1.58-.15-.58-.23-1.18-.42-1.75-.36-1.1-.87-2.1-1.7-2.94-.75-.76-1.63-1.24-2.69-1.25-4.07-.03-8.15-.02-12.22-.02-.1,0-.19,0-.29,0-.02,.06-.04,.1-.04,.14-.13,1.3,.39,2.43,1.76,2.9,.64,.22,1.3,.26,1.97,.26,2.39,0,4.78,0,7.18,0,.28,0,.57,0,.84,.07,.65,.14,1.12,.58,1.57,1.04,.23,.23,.32,.5,.43,.78,.08,.19,.18,.36,.25,.57,.48,1.47,.55,2.96,.22,4.47-.17,.77-.43,1.5-1,2.09-.43,.45-.94,.69-1.58,.69-2.82,0-5.64,0-8.46,0-.09,0-.19,0-.3,0v-6.46h-2.85Z"/>
  <path class="cls-2" d="M464.08,25.25c-.23,1.46,.42,2.59,1.73,3.04,.58,.2,1.18,.24,1.79,.24,2.89,0,5.78,0,8.67,0,.19,0,.37,0,.56,.02,.88,.08,1.49,.72,1.49,1.61,0,2.14,0,4.29,0,6.43,0,.84-.51,1.46-1.34,1.61-.18,.03-.37,.03-.56,.03-1.42,0-2.85,0-4.27,0-1.16,0-2.33,0-3.49,0-1.14,0-1.76-.64-1.76-1.78,0-1.47,0-2.93,0-4.4,0-.09,0-.19,0-.28h-2.87c0,.11,0,.2,0,.3,0,1.45,0,2.9,0,4.35,0,.36,0,.71,.05,1.06,.2,1.57,.92,2.8,2.37,3.53,.76,.38,1.58,.51,2.43,.51,2.4,0,4.8,0,7.2,0,.37,0,.75,0,1.12-.06,1.59-.21,2.8-.96,3.5-2.44,.32-.68,.46-1.41,.46-2.17,0-2.32,0-4.64,0-6.96,0-.27-.02-.55-.06-.82-.26-1.58-1.06-2.77-2.56-3.42-.69-.3-1.41-.4-2.16-.4-4.03,0-8.06,0-12.08,0-.06,0-.12,0-.2,0Z"/>
  <path class="cls-2" d="M526.37,33.78c-2.02,2.58-4.02,5.15-6.05,7.74,1.38,0,2.72,0,4.07,0,.07,0,.16-.06,.21-.12,3.84-4.99,7.68-9.99,11.52-14.98,.29-.38,.58-.75,.9-1.17h-.31c-1.07,0-2.13,0-3.2,0-.2,0-.34,.05-.47,.22-.69,.88-1.38,1.76-2.08,2.64-.73,.92-1.46,1.84-2.2,2.77-.09-.08-.17-.15-.25-.22-1.36-1.24-2.61-2.59-3.79-4.01-.4-.48-.87-.89-1.45-1.15-.99-.44-2.23-.24-2.93,.49,2,2.59,4,5.19,6.02,7.8Z"/>
  <path class="cls-2" d="M506.23,38.23s-.01-.03-.02-.05c2.8-2.13,5.6-4.25,8.43-6.4-.07-.01-.1-.02-.12-.02-1.48,0-2.95,0-4.43,0-.1,0-.22,.05-.31,.11-2.74,2.08-5.47,4.16-8.21,6.24-.11,.08-.16,.17-.16,.31,0,.99,0,1.97,0,2.96,0,.04,0,.08,.01,.12h17.07v-3.28h-12.27Z"/>
  <path class="cls-2" d="M447.96,31.79h-2.84v.28c0,1.56,0,3.13,0,4.69,0,.39,.03,.78,.11,1.16,.3,1.49,1.11,2.59,2.53,3.2,.71,.3,1.45,.4,2.21,.4,3.99,0,7.98,0,11.98,0,.08,0,.15,0,.23-.01v-3.28h-.3c-2.92,0-5.85,0-8.77,0-1.12,0-2.24,0-3.36,0-1.17,0-1.79-.63-1.79-1.8,0-1.44,0-2.88,0-4.32,0-.1,0-.19,0-.32Z"/>
  <path class="cls-2" d="M501.48,25.26c-.21,1.06,.15,2.37,1.43,2.92,.64,.28,1.32,.35,2.01,.35,4.45,0,8.89,0,13.34,0,.09,0,.17,0,.26-.01v-3.26h-17.04Z"/>
  <path class="cls-2" d="M445.1,28.49c.07,0,.11,.01,.16,.01,4.52,0,9.03,.02,13.55,.02,.43,0,.87-.05,1.29-.14,.86-.18,1.55-.61,1.92-1.45,.24-.54,.3-1.1,.18-1.69-.08,0-.13,0-.18,0-4.04,0-8.09,0-12.13,0-.41,0-.82,.03-1.22,.11-1.64,.32-2.84,1.2-3.46,2.79-.04,.11-.07,.22-.11,.34Z"/>
  <path class="cls-2" d="M536.57,41.52c-1.56-1.99-3.08-3.94-4.62-5.91-.65,.96-1.28,1.89-1.91,2.82,.77,1.01,1.53,2.01,2.29,3,.04,.05,.13,.08,.2,.08,1.32,0,2.65,0,4.04,0Z"/>
  <path class="cls-1" d="M483.02,31.78h2.85v6.46c.11,0,.21,0,.3,0,2.82,0,5.64-.01,8.46,0,.64,0,1.15-.24,1.58-.69,.56-.59,.83-1.32,1-2.09,.33-1.51,.25-2.99-.22-4.47-.07-.21-.17-.38-.25-.57-.11-.28-.21-.55-.43-.78-.45-.46-.92-.9-1.57-1.04-.27-.06-.56-.07-.84-.07-2.39,0-4.78,0-7.18,0-.67,0-1.33-.04-1.97-.26-1.37-.46-1.89-1.59-1.76-2.9,0-.04,.02-.08,.04-.14,.1,0,.2,0,.29,0,4.07,0,8.15,0,12.22,.02,1.06,0,1.94,.49,2.69,1.25,.83,.84,1.34,1.84,1.7,2.94,.18,.57,.27,1.17,.42,1.75,.14,.52,.12,1.05,.17,1.58,.08,.78,.04,1.56-.05,2.33-.15,1.24-.43,2.44-1.01,3.56-.48,.93-1.1,1.74-2.02,2.28-.63,.37-1.31,.57-2.05,.56-3.99,0-7.99-.01-11.98-.02-.12,0-.24,0-.37,0v-9.72Z"/>
  <path class="cls-2" d="M464.08,25.25c.08,0,.14,0,.2,0,4.03,0,8.06,0,12.08,0,.74,0,1.47,.1,2.16,.4,1.5,.65,2.3,1.84,2.56,3.42,.04,.27,.06,.55,.06,.82,0,2.32,0,4.64,0,6.96,0,.76-.13,1.49-.46,2.17-.7,1.48-1.92,2.24-3.5,2.44-.37,.05-.74,.05-1.12,.06-2.4,0-4.8,0-7.2,0-.85,0-1.67-.13-2.43-.51-1.45-.73-2.17-1.96-2.37-3.53-.04-.35-.05-.71-.05-1.06,0-1.45,0-2.9,0-4.35,0-.1,0-.19,0-.3h2.87c0,.09,0,.19,0,.28,0,1.47,0,2.93,0,4.4,0,1.14,.62,1.77,1.76,1.78,1.16,0,2.33,0,3.49,0,1.42,0,2.85,0,4.27,0,.19,0,.38,0,.56-.03,.83-.15,1.34-.77,1.34-1.61,0-2.14,0-4.29,0-6.43,0-.88-.61-1.53-1.49-1.61-.19-.02-.37-.02-.56-.02-2.89,0-5.78,0-8.67,0-.61,0-1.21-.04-1.79-.24-1.3-.45-1.95-1.58-1.73-3.04Z"/>
  <path class="cls-2" d="M526.37,33.78c-2.02-2.62-4.02-5.21-6.02-7.8,.71-.73,1.94-.93,2.93-.49,.58,.26,1.05,.66,1.45,1.15,1.18,1.42,2.42,2.77,3.79,4.01,.08,.07,.16,.14,.25,.22,.74-.93,1.47-1.85,2.2-2.77,.7-.88,1.39-1.75,2.08-2.64,.13-.17,.26-.22,.47-.22,1.07,0,2.13,0,3.2,0h.31c-.32,.41-.61,.79-.9,1.17-3.84,4.99-7.68,9.99-11.52,14.98-.05,.06-.14,.12-.21,.12-1.34,0-2.68,0-4.07,0,2.03-2.59,4.03-5.16,6.05-7.74Z"/>
  <path class="cls-2" d="M506.23,38.23h12.27v3.28h-17.07s-.01-.08-.01-.12c0-.99,0-1.97,0-2.96,0-.14,.05-.22,.16-.31,2.74-2.08,5.47-4.16,8.21-6.24,.08-.06,.2-.11,.31-.11,1.48,0,2.95,0,4.43,0,.02,0,.05,0,.12,.02-2.83,2.15-5.63,4.28-8.43,6.4,0,.02,.01,.03,.02,.05Z"/>
  <path class="cls-2" d="M447.96,31.79c0,.12,0,.22,0,.32,0,1.44,0,2.88,0,4.32,0,1.17,.62,1.8,1.79,1.8,1.12,0,2.24,0,3.36,0,2.92,0,5.85,0,8.77,0h.3v3.28c-.08,0-.15,.01-.23,.01-3.99,0-7.98,0-11.98,0-.76,0-1.51-.1-2.21-.4-1.42-.6-2.23-1.71-2.53-3.2-.08-.38-.11-.78-.11-1.16-.01-1.56,0-3.13,0-4.69v-.28h2.84Z"/>
  <path class="cls-2" d="M501.48,25.26h17.04v3.26c-.09,0-.17,.01-.26,.01-4.45,0-8.89,0-13.34,0-.69,0-1.36-.07-2.01-.35-1.28-.56-1.65-1.86-1.43-2.92Z"/>
  <path class="cls-2" d="M445.1,28.49c.04-.12,.07-.23,.11-.34,.62-1.59,1.81-2.48,3.46-2.79,.4-.08,.81-.11,1.22-.11,4.04,0,8.09,0,12.13,0,.05,0,.11,0,.18,0,.12,.59,.05,1.15-.18,1.69-.37,.84-1.06,1.27-1.92,1.45-.42,.09-.86,.14-1.29,.14-4.52,0-9.03-.01-13.55-.02-.04,0-.09,0-.16-.01Z"/>
  <path class="cls-2" d="M536.57,41.52c-1.39,0-2.71,0-4.04,0-.07,0-.16-.03-.2-.08-.76-.99-1.52-1.99-2.29-3,.63-.93,1.26-1.86,1.91-2.82,1.54,1.97,3.06,3.92,4.62,5.91Z"/>
</svg>